<svg width="51" height="51" viewBox="0 0 51 51" fill="none" xmlns="http://www.w3.org/2000/svg">
<path d="M21.0854 19.2578H22.8418L21.9636 17.3359L21.0854 19.2578Z" fill="white"/>
<path d="M25.0901 6.6123C17.3373 6.6123 11.0547 11.6153 11.0547 17.7925C11.0547 21.7166 13.5988 25.169 17.4376 27.1662L16.3788 32.6609L22.4506 28.772C23.3087 28.9024 24.1919 28.9727 25.0952 28.9727C32.848 28.9727 39.1306 23.9647 39.1306 17.7925C39.1256 11.6203 32.843 6.6123 25.0901 6.6123ZM17.9746 21.0994C17.9746 21.2549 17.9093 21.4055 17.7989 21.5159C17.6885 21.6263 17.538 21.6865 17.3824 21.6865H17.252C17.0964 21.6865 16.9459 21.6263 16.8355 21.5109C16.7251 21.4005 16.6598 21.2499 16.6598 21.0944V16.2118H15.2197C15.1042 16.2118 14.9888 16.1817 14.8885 16.1165C14.7931 16.0562 14.7179 15.976 14.6727 15.8756C14.6426 15.8104 14.6275 15.7401 14.6275 15.6699C14.6275 15.5946 14.6426 15.5243 14.6727 15.4591C14.7028 15.3939 14.748 15.3387 14.7981 15.2885C14.9085 15.1831 15.0591 15.1279 15.2146 15.1279H19.3896C19.5101 15.1279 19.6205 15.158 19.7208 15.2182C19.8162 15.2785 19.8915 15.3587 19.9366 15.4591C19.9667 15.5243 19.9818 15.5946 19.9818 15.6699C19.9818 15.7401 19.9667 15.8104 19.9366 15.8756C19.9065 15.9408 19.8613 16.0011 19.8061 16.0512C19.6957 16.1516 19.5452 16.2118 19.3896 16.2118H17.9695V21.0994H17.9746ZM24.9697 21.4005C24.9095 21.5008 24.8192 21.5761 24.7138 21.6212L24.5934 21.6764C24.4177 21.7567 24.2019 21.7467 24.0313 21.6363C23.931 21.5761 23.8557 21.4858 23.8105 21.3804L23.3238 20.3166H20.594L20.1122 21.3754C20.0621 21.4757 19.9868 21.5661 19.8914 21.6263C19.7259 21.7316 19.5051 21.7467 19.3294 21.6664L19.209 21.6112C19.1036 21.561 19.0183 21.4858 18.9531 21.3904C18.8929 21.2951 18.8628 21.1847 18.8628 21.0743C18.8628 20.989 18.8828 20.9087 18.918 20.8334L21.2915 15.6297L21.3116 15.5795C21.3266 15.5193 21.3517 15.4641 21.3818 15.4089C21.3918 15.3939 21.4019 15.3788 21.427 15.3437C21.4721 15.2734 21.5374 15.2082 21.6076 15.163C21.703 15.1028 21.8134 15.0727 21.9238 15.0727C21.9488 15.0727 21.9739 15.0727 22.0191 15.0777C22.1245 15.0827 22.2248 15.1129 22.3152 15.1681C22.3653 15.1982 22.4105 15.2383 22.4657 15.2985C22.4958 15.3286 22.5209 15.3638 22.546 15.3989C22.5811 15.4541 22.6062 15.5193 22.6213 15.5846L25.1403 21.1295L24.9697 21.4005ZM30.0028 21.3904C29.9727 21.4456 29.9376 21.4958 29.8924 21.5309C29.782 21.6313 29.6315 21.6865 29.4759 21.6865H26.0285C26.0084 21.6865 25.9884 21.6865 25.9683 21.6815C25.8679 21.6714 25.7776 21.6413 25.6973 21.5911C25.612 21.541 25.5468 21.4657 25.4966 21.3854L25.4364 21.2901V15.72C25.4364 15.5645 25.5016 15.4139 25.612 15.3035C25.7224 15.1931 25.8729 15.1329 26.0285 15.1329H26.164C26.3196 15.1329 26.4701 15.1982 26.5805 15.3086C26.6909 15.419 26.7511 15.5695 26.7511 15.7251V20.6277H29.4709C29.5863 20.6277 29.7017 20.6578 29.8021 20.718C29.8523 20.7481 29.8924 20.7832 29.9325 20.8234L30.1684 21.0893L30.0028 21.3904ZM35.5226 21.285C35.4825 21.3703 35.4173 21.4456 35.342 21.5008L35.2366 21.5811C35.066 21.7066 34.8151 21.7266 34.6244 21.6313C34.5391 21.5911 34.4688 21.5259 34.4137 21.4506L32.557 18.9165L31.7742 19.7294V21.0994C31.7742 21.2549 31.7089 21.4055 31.5985 21.5159C31.4881 21.6263 31.3376 21.6865 31.182 21.6865H31.0465C30.891 21.6865 30.7404 21.6263 30.6301 21.5159C30.5899 21.4757 30.5598 21.4306 30.5297 21.3854L30.4544 21.2499V15.72C30.4544 15.5645 30.5197 15.4139 30.6301 15.3035C30.7404 15.1931 30.891 15.1329 31.0465 15.1329H31.182C31.3376 15.1329 31.4881 15.1982 31.5985 15.3086C31.7089 15.419 31.7691 15.5695 31.7691 15.7251V17.8326L34.1878 15.3136C34.243 15.2584 34.3133 15.2082 34.3835 15.1781C34.5943 15.0928 34.8552 15.1379 35.0208 15.2985L35.1162 15.3939C35.1764 15.4491 35.2216 15.5143 35.2517 15.5896C35.2818 15.6648 35.2968 15.7401 35.2968 15.8204C35.2968 15.976 35.2416 16.1165 35.1312 16.2269L33.4703 17.9631L35.4624 20.6879C35.5377 20.7883 35.5778 20.9087 35.5778 21.0341C35.5829 21.1144 35.5628 21.2048 35.5226 21.285Z" fill="white"/>
<path d="M10.748 40.0116C11.3301 39.7306 11.7868 39.3794 12.128 38.9428C12.4692 38.5113 12.6398 38.0195 12.6449 37.4725V36.6496H13.6234V37.4525C13.6184 37.7134 13.6635 37.9643 13.7639 38.2001C13.8642 38.436 13.9947 38.6518 14.1603 38.8475C14.3259 39.0381 14.5166 39.2088 14.7324 39.3543C14.9481 39.4998 15.179 39.6202 15.4198 39.7055L14.8377 40.4031C14.6621 40.3228 14.4865 40.2224 14.3109 40.107C14.1352 39.9916 13.9746 39.8711 13.8291 39.7457C13.6736 39.6202 13.5381 39.4898 13.4227 39.3543C13.3072 39.2188 13.2119 39.0883 13.1467 38.9629C13.0965 39.0933 13.0162 39.2339 12.9058 39.3794C12.7954 39.5249 12.6649 39.6754 12.5144 39.821C12.3689 39.9615 12.2033 40.102 12.0226 40.2375C11.842 40.3729 11.6563 40.4884 11.4706 40.5887L10.748 40.0116ZM14.5718 40.8798C14.9431 40.8798 15.2894 40.9149 15.6055 40.9851C15.9216 41.0554 16.1976 41.1558 16.4335 41.2912C16.6643 41.4217 16.845 41.5823 16.9754 41.773C17.1059 41.9637 17.1711 42.1845 17.1711 42.4303C17.1711 42.6812 17.1059 42.902 16.9754 43.0927C16.845 43.2834 16.6643 43.444 16.4335 43.5795C16.1976 43.7099 15.9216 43.8103 15.6055 43.8755C15.2894 43.9408 14.9381 43.9759 14.5618 43.9759C14.1854 43.9759 13.8392 43.9408 13.523 43.8755C13.2069 43.8103 12.9359 43.7099 12.7051 43.5795C12.4743 43.449 12.2936 43.2884 12.1682 43.0927C12.0377 42.902 11.9775 42.6812 11.9775 42.4303C11.9775 42.1895 12.0427 41.9737 12.1732 41.783C12.3036 41.5923 12.4893 41.4267 12.7252 41.2912C12.961 41.1608 13.237 41.0604 13.5481 40.9851C13.8642 40.9149 14.2055 40.8798 14.5718 40.8798ZM14.5718 41.6124C14.0951 41.6124 13.7087 41.6827 13.4126 41.8282C13.1166 41.9687 12.971 42.1694 12.971 42.4203C12.971 42.6762 13.1216 42.882 13.4176 43.0325C13.7137 43.183 14.1001 43.2583 14.5718 43.2583C15.0535 43.2583 15.4399 43.183 15.731 43.0275C16.022 42.8719 16.1725 42.6712 16.1725 42.4203C16.1725 42.1644 16.027 41.9637 15.736 41.8232C15.4449 41.6827 15.0585 41.6124 14.5718 41.6124ZM15.9919 40.8998V36.499H16.9202V38.0998H17.8887V38.8776H16.9202V40.8948H15.9919V40.8998Z" fill="white"/>
<path d="M18.8072 40.0875C18.7219 40.0875 18.6617 40.0725 18.6316 40.0374C18.6015 40.0022 18.5864 39.942 18.5864 39.8567V37.0265C18.5864 36.9463 18.6015 36.886 18.6366 36.8509C18.6717 36.8158 18.7319 36.7957 18.8173 36.7957H22.079V37.5735H19.4997V39.2997L20.5184 39.2897C20.6689 39.2897 20.8546 39.2847 21.0704 39.2696C21.2811 39.2545 21.5019 39.2395 21.7277 39.2144C21.9585 39.1943 22.1743 39.1642 22.3851 39.1341C22.5908 39.104 22.7715 39.0739 22.917 39.0388V39.7965C22.7966 39.8216 22.636 39.8517 22.4353 39.8868C22.2345 39.9219 22.0087 39.9521 21.7628 39.9771C21.517 40.0022 21.261 40.0273 20.9901 40.0474C20.7191 40.0675 20.4632 40.0775 20.2123 40.0775C20.1521 40.0775 20.0467 40.0775 19.8961 40.0825C19.7456 40.0875 19.59 40.0875 19.4345 40.0875C19.2789 40.0875 19.1334 40.0875 19.0079 40.0875C18.8825 40.0875 18.8122 40.0875 18.8072 40.0875ZM19.5198 40.8553H23.8805C23.9607 40.8553 24.021 40.8754 24.0561 40.9105C24.0912 40.9456 24.1113 41.0058 24.1113 41.0861V43.5299C24.1113 43.6152 24.0912 43.6754 24.0561 43.7106C24.021 43.7457 23.9607 43.7607 23.8805 43.7607H19.5198C19.4345 43.7607 19.3743 43.7457 19.3391 43.7106C19.304 43.6754 19.2889 43.6152 19.2889 43.5299V41.0861C19.2889 41.0058 19.304 40.9456 19.3391 40.9105C19.3743 40.8754 19.4345 40.8553 19.5198 40.8553ZM23.188 42.998V41.6281H20.2073V42.998H23.188ZM24.1063 36.4996V37.8846H25.0597V38.6624H24.1063V40.5643H23.1829V36.4946H24.1063V36.4996Z" fill="white"/>
<path d="M25.481 37.8193H29.7664V38.6071H25.481V37.8193ZM27.6387 42.5663C27.3477 42.5663 27.0867 42.5212 26.8459 42.4358C26.61 42.3505 26.4043 42.2251 26.2437 42.0645C26.0731 41.9039 25.9426 41.7183 25.8473 41.4975C25.7519 41.2767 25.7068 41.0358 25.7068 40.7749C25.7068 40.524 25.7519 40.2881 25.8372 40.0673C25.9225 39.8465 26.053 39.6609 26.2236 39.5003C26.3942 39.3397 26.595 39.2193 26.8358 39.129C27.0717 39.0386 27.3426 38.9935 27.6337 38.9935C27.9247 38.9935 28.1957 39.0386 28.4316 39.129C28.6674 39.2193 28.8681 39.3447 29.0387 39.5003C29.2094 39.6609 29.3398 39.8465 29.4302 40.0673C29.5205 40.2881 29.5656 40.524 29.5656 40.7749C29.5656 41.0358 29.5155 41.2767 29.4201 41.4975C29.3248 41.7183 29.1943 41.9039 29.0287 42.0645C28.8581 42.2251 28.6574 42.3455 28.4165 42.4358C28.1857 42.5212 27.9197 42.5663 27.6387 42.5663ZM26.4896 36.5949H28.7778V37.3476H26.4896V36.5949ZM27.6387 39.7813C27.3276 39.7813 27.0867 39.8767 26.9161 40.0673C26.7455 40.258 26.6602 40.4939 26.6602 40.7749C26.6602 41.0659 26.7455 41.3068 26.9161 41.4925C27.0867 41.6831 27.3276 41.7735 27.6337 41.7735C27.9348 41.7735 28.1706 41.6781 28.3463 41.4925C28.5219 41.3018 28.6072 41.0659 28.6072 40.7749C28.6072 40.4939 28.5219 40.263 28.3463 40.0673C28.1706 39.8716 27.9398 39.7813 27.6387 39.7813ZM30.3936 43.8359V36.4995H31.3119V39.42H32.3155V40.2681H31.3119V43.8359H30.3936Z" fill="white"/>
<path d="M36.2953 36.916C36.3756 36.916 36.4358 36.9361 36.4709 36.9712C36.5061 37.0063 36.5261 37.0666 36.5261 37.1468C36.4609 38.2809 36.1749 39.2946 35.6781 40.1928C35.1763 41.091 34.4286 41.8487 33.435 42.476L32.6572 41.8588C33.5454 41.3821 34.2229 40.795 34.6996 40.1025C35.1713 39.41 35.4372 38.6071 35.4974 37.7038H33.0587V36.916H36.2953ZM38.709 36.4995V43.8459H37.7806V36.4995H38.709Z" fill="white"/>
</svg>
