<svg width="26" height="26" viewBox="0 0 26 26" fill="none" xmlns="http://www.w3.org/2000/svg">
<g clip-path="url(#clip0_21_16)">
<path d="M12.3038 25.9955L13.5516 26C20.5353 25.7061 25.9978 20.0087 25.9978 13.0022C25.9978 5.99572 20.5353 0.298339 13.5516 0.00445282L12.315 0C12.3105 0.00222641 12.3083 0.00445282 12.3038 0.00890563C5.40017 0.374037 0 6.07142 0 13.0022C0 19.933 5.40017 25.6304 12.3038 25.9955ZM4.45492 21.4136C5.28007 20.8147 6.17194 20.3004 7.11275 19.8841C8.00684 21.7542 9.25013 23.4062 10.8137 24.8044C8.41163 24.3591 6.18084 23.1702 4.45492 21.4136ZM12.4973 24.8868C10.5957 23.4552 9.0633 21.6051 8.0491 19.5078C9.47476 18.989 10.9694 18.6929 12.4973 18.6217V24.8868ZM12.4973 17.6176C10.827 17.6888 9.19453 18.0139 7.64209 18.5861C7.05047 17.11 6.70128 15.547 6.60342 13.9329L12.4973 13.9306V17.6176ZM12.4973 12.9243L6.57228 12.9288C6.58118 11.2768 6.85252 9.65816 7.38186 8.11526C9.01437 8.75869 10.7336 9.12382 12.4973 9.19952V12.9243ZM15.0128 24.8356C16.6498 23.3817 17.9353 21.6585 18.8383 19.7037C19.8503 20.1156 20.8111 20.6366 21.6985 21.2578C19.9081 23.148 17.5595 24.4014 15.0128 24.8356ZM22.3636 20.4963C21.3916 19.8061 20.3374 19.2295 19.2253 18.7753C19.8214 17.2324 20.1706 15.6027 20.264 13.924L24.9569 13.9217C24.7723 16.3374 23.8804 18.6016 22.3636 20.4963ZM22.7394 6.00462C24.1985 8.03288 24.9769 10.4174 24.9925 12.9176L20.2929 12.9198C20.284 11.2055 20.0082 9.52235 19.47 7.91266C20.631 7.41172 21.7275 6.77051 22.7394 6.00462ZM22.1189 5.21202C21.1892 5.91334 20.1839 6.50334 19.123 6.96643C18.2267 4.76229 16.8144 2.77188 15.0128 1.16664C17.7796 1.63641 20.2796 3.05463 22.1189 5.21202ZM13.5027 1.2223C15.5978 2.83422 17.2125 4.9404 18.1911 7.33824C16.6831 7.87926 15.1085 8.16869 13.5027 8.20209V1.2223ZM13.5027 9.21065C15.2241 9.17726 16.9145 8.86556 18.5358 8.28224C19.0274 9.77616 19.2809 11.3346 19.2898 12.9198L13.5027 12.9243V9.21065ZM13.5027 13.9284L19.2587 13.9262C19.1653 15.4824 18.8383 16.9942 18.2845 18.4258C16.7454 17.9115 15.1396 17.6354 13.5027 17.6042V13.9284ZM13.5027 18.6105C15.0039 18.6417 16.4763 18.8911 17.8908 19.3564C16.9011 21.4626 15.3909 23.3283 13.5027 24.7822V18.6105ZM12.4973 1.11766V8.19096C10.8604 8.11526 9.26347 7.77239 7.74217 7.17349C8.7497 4.79123 10.3867 2.70509 12.4973 1.11766ZM10.8159 1.19781C9.08554 2.74739 7.71326 4.65987 6.82139 6.77051C5.83388 6.30074 4.89752 5.71964 4.03456 5.03836C5.81608 3.03014 8.20034 1.68317 10.8159 1.19781ZM3.39624 5.81983C4.34371 6.56791 5.37126 7.20243 6.45441 7.71228C5.87391 9.37986 5.57365 11.1343 5.56698 12.9265L1.0053 12.9288C1.02087 10.3439 1.84602 7.89039 3.39624 5.81983ZM1.04311 13.9351L5.59812 13.9329C5.69598 15.6761 6.06963 17.3682 6.71018 18.9623C5.66929 19.4232 4.684 19.9954 3.77656 20.6633C2.17742 18.7397 1.23439 16.422 1.04311 13.9351Z" fill="#8F8F8F"/>
</g>
<defs>
<clipPath id="clip0_21_16">
<rect width="26" height="26" fill="white"/>
</clipPath>
</defs>
</svg>
