<svg width="51" height="51" viewBox="0 0 51 51" fill="none" xmlns="http://www.w3.org/2000/svg">
<path d="M32.8781 7.46631H17.3022C11.4311 7.46631 6.66895 12.2284 6.66895 18.0995V33.6755C6.66895 39.5466 11.4311 44.3087 17.3022 44.3087H32.8781C38.7492 44.3087 43.5114 39.5466 43.5114 33.6755V18.0995C43.5114 12.2234 38.7492 7.46631 32.8781 7.46631ZM40.1192 33.9515C40.1192 37.8505 36.9628 41.0119 33.0638 41.0119H17.1215C13.2225 41.0119 10.0611 37.8505 10.0611 33.9515V18.0092C10.0611 14.1102 13.2225 10.9538 17.1215 10.9538H33.0588C36.9578 10.9538 40.1142 14.1152 40.1142 18.0092V33.9515H40.1192Z" fill="white"/>
<path d="M25.0906 16.4185C19.8116 16.4185 15.5312 20.6988 15.5312 25.9778C15.5312 31.2568 19.8116 35.5372 25.0906 35.5372C30.3746 35.5372 34.655 31.2568 34.655 25.9778C34.65 20.6988 30.3696 16.4185 25.0906 16.4185ZM25.0906 32.1751C21.6683 32.1751 18.8933 29.4001 18.8933 25.9778C18.8933 22.5555 21.6683 19.7805 25.0906 19.7805C28.5179 19.7805 31.2879 22.5555 31.2879 25.9778C31.2879 29.4001 28.5129 32.1751 25.0906 32.1751Z" fill="white"/>
<path d="M34.9712 13.8291C33.7418 13.8291 32.7432 14.8277 32.7432 16.0571C32.7432 17.2865 33.7418 18.2851 34.9712 18.2851C36.2006 18.2851 37.1992 17.2865 37.1992 16.0571C37.1942 14.8227 36.2006 13.8291 34.9712 13.8291Z" fill="white"/>
</svg>
