<svg width="82" height="61" viewBox="0 0 82 61" fill="none" xmlns="http://www.w3.org/2000/svg">
<path d="M81.6701 47.6299C81.6801 42.4099 81.6801 37.1799 81.6701 31.9599C81.6701 31.4999 81.6101 31.0099 81.4701 30.3999C81.0401 28.4099 80.1001 26.4699 78.5101 24.3099C77.3501 22.7199 76.1701 21.1499 74.9901 19.5699C74.3701 18.7399 73.7501 17.9199 73.1301 17.0899C72.2701 15.9399 71.2401 14.6199 69.9101 13.6199C68.5001 12.5599 67.0501 12.0399 65.4901 12.0399C65.4801 12.0399 65.4701 12.0399 65.4501 12.0399C63.1901 12.0499 60.9301 12.0499 58.6701 12.0499C56.6601 12.0499 54.6601 12.0499 52.6601 12.0599C52.3401 12.0599 52.0201 12.1199 51.6801 12.1799C51.5201 12.2099 51.3501 12.2399 51.1901 12.2599C51.1401 12.2699 51.0801 12.2699 51.0201 12.2699L50.9101 12.2799C50.8401 12.2999 50.7701 12.2599 50.7201 12.2099C50.6701 12.1599 50.6401 12.0999 50.6401 12.0299V10.1399C50.6401 8.50986 50.6401 6.88986 50.6401 5.25986C50.6401 4.91986 50.6101 4.60986 50.5701 4.30986C50.2401 2.22986 48.3301 0.609863 46.2201 0.609863H38.0101C27.0601 0.609863 16.1101 0.609863 5.16008 0.609863H5.15007C4.28007 0.609863 3.55008 0.779862 2.94008 1.11986C1.41008 1.96986 0.600082 3.24986 0.600082 4.82986C0.580082 13.6999 0.580078 22.5599 0.580078 31.4299C0.580078 36.7899 0.580078 42.1499 0.580078 47.5099C0.580078 48.1199 0.69007 48.7099 0.90007 49.3199C1.50007 51.0199 3.23007 52.2699 5.01007 52.2899C7.21007 52.3199 9.41008 52.3099 11.4601 52.2899H11.4701C11.9401 52.2899 12.1801 52.4899 12.2601 52.9399C12.5401 54.4599 13.2001 55.8399 14.2301 57.0199C16.3901 59.5099 19.1001 60.6599 22.2901 60.4299C23.4401 60.3499 24.5601 60.0499 25.6301 59.5399C27.3601 58.7099 28.7501 57.4399 29.7601 55.7399C30.2801 54.8599 30.6301 53.9699 30.8101 53.0799L30.8301 52.9799C30.9501 52.3799 31.0601 52.2999 31.7201 52.2999H55.0701C56.0201 52.2999 56.1101 52.3699 56.3601 53.2499C56.9601 55.3799 58.0101 57.0199 59.5801 58.3099C61.3201 59.7399 63.3701 60.4699 65.6701 60.4799C66.8101 60.4699 67.9601 60.2699 69.0701 59.8199C70.9301 59.0699 72.4301 57.8599 73.5201 56.1999C74.2301 55.1299 74.6901 53.9999 74.9101 52.8299C74.9801 52.4599 75.2201 52.2999 75.5801 52.2899C75.7701 52.2999 75.9601 52.2899 76.1501 52.2899C76.3701 52.2899 76.5901 52.2899 76.8101 52.2899C77.9501 52.3199 78.9801 51.9799 79.8501 51.2599C81.0701 50.2399 81.6701 49.0499 81.6701 47.6299ZM26.2301 55.8399C24.9901 57.0299 23.4001 57.6799 21.7301 57.6799C21.6601 57.6799 21.6001 57.6799 21.5301 57.6799C19.7701 57.7199 18.1001 57.0499 16.8101 55.7799C15.5001 54.4999 14.7601 52.7299 14.7701 50.9299C14.7901 47.1299 17.7701 44.1399 21.5501 44.1399C21.5601 44.1399 21.5601 44.1399 21.5701 44.1399C23.3901 44.1399 25.0901 44.8399 26.3501 46.1099C27.6401 47.4099 28.3501 49.1599 28.3301 51.0499C28.3101 52.8199 27.5501 54.5699 26.2301 55.8399ZM47.9401 27.5799C47.9301 29.3799 47.9101 31.1799 47.9101 32.9899C47.9001 36.7099 47.9001 40.4199 47.9101 44.1399V49.2999C47.9101 49.4399 47.8001 49.5499 47.6601 49.5499H44.6101C40.2601 49.5499 35.9101 49.5499 31.5501 49.5599C31.1301 49.5599 30.9001 49.3699 30.8301 48.9699C30.6001 47.6599 30.0501 46.4299 29.1501 45.2299C28.0201 43.7199 26.5501 42.6299 24.8001 41.9999C23.2601 41.4499 21.7401 41.2899 20.1601 41.5299C18.1501 41.8299 16.3901 42.6999 14.9201 44.1099C13.5201 45.4599 12.6201 47.0999 12.2501 48.9699C12.2301 49.0599 12.2001 49.1499 12.1701 49.2499L12.1301 49.3699C12.1001 49.4799 12.0001 49.5499 11.8901 49.5499H7.88008C7.62008 49.5499 7.35007 49.5499 7.09007 49.5399C6.50007 49.5399 5.89008 49.5299 5.30008 49.5499C5.27008 49.5499 5.24008 49.5499 5.22008 49.5499C4.74008 49.5499 4.29007 49.3699 3.93007 49.0299C3.54007 48.6599 3.32008 48.1299 3.32008 47.5599C3.32008 46.9999 3.32008 46.4399 3.32008 45.8799V45.1799V5.15986C3.32008 3.97986 3.97007 3.32986 5.15007 3.32986H45.9001C47.0401 3.32986 47.9101 4.18986 47.9101 5.32986V18.0999C47.9101 18.9299 47.9101 19.7699 47.9101 20.5999C47.9101 20.9899 47.9301 21.3799 47.9401 21.7799C47.9601 22.2699 47.9701 22.7599 47.9701 23.2499C47.9701 24.6899 47.9501 26.1299 47.9401 27.5799ZM62.3201 14.7999L62.4501 14.7899C62.5601 14.7799 62.6601 14.7799 62.7501 14.7799C62.9901 14.7799 63.2201 14.7799 63.4601 14.7899C63.9801 14.7999 64.5101 14.8099 65.0301 14.7699C66.3201 14.6799 67.3201 15.2599 68.2001 15.8999C69.4301 16.7899 70.3301 17.9899 71.1901 19.1599L71.3201 19.3299C72.9901 21.5699 74.6701 23.8199 76.3501 26.0499C77.0301 26.9499 77.7301 27.9299 78.1401 29.0799C78.3101 29.5599 78.4401 30.0499 78.5701 30.5699C78.6301 30.7999 78.6901 31.0399 78.7601 31.2899C78.7801 31.3599 78.7701 31.4399 78.7201 31.4999C78.6801 31.5599 78.6101 31.5999 78.5301 31.5999L78.3001 31.6099C78.1801 31.6199 78.0901 31.6199 78.0001 31.6199C75.3501 31.6199 72.7001 31.6199 70.0401 31.6199C68.1001 31.6199 66.1601 31.6199 64.2201 31.6199C63.1001 31.6199 62.0801 30.6099 62.0801 29.4999V15.0399C62.0801 14.9199 62.1801 14.8099 62.3201 14.7999ZM70.3801 55.7799C69.1201 57.0099 67.4701 57.6899 65.7101 57.6899C65.6301 57.6899 65.5601 57.6899 65.4701 57.6899C63.7201 57.6899 62.0701 57.0099 60.8101 55.7599C59.5101 54.4699 58.8101 52.7499 58.8201 50.9199C58.8501 47.0599 61.7801 44.1599 65.6201 44.1599C69.4001 44.1599 72.3701 47.1299 72.3901 50.9299C72.4001 52.7699 71.6801 54.4899 70.3801 55.7799ZM78.2901 48.9399C77.8801 49.3199 77.3801 49.5499 76.9501 49.5499C76.9201 49.5499 76.9001 49.5499 76.8701 49.5499C76.4101 49.5199 75.9501 49.5299 75.5501 49.5499C75.1901 49.5399 74.9801 49.3999 74.9101 49.0399C74.6201 47.5599 73.9901 46.1999 73.0201 44.9999C72.0501 43.7899 70.8701 42.8699 69.5101 42.2499C68.0501 41.5899 66.5601 41.3099 65.0701 41.4099C63.0201 41.5499 61.2101 42.2499 59.7001 43.4799C58.0501 44.8199 56.9301 46.5399 56.3901 48.5599C56.1501 49.4599 56.0401 49.5399 55.0801 49.5399H50.9001C50.7601 49.5399 50.6501 49.4299 50.6501 49.2899V17.0299C50.6501 15.7499 51.6101 14.7799 52.8801 14.7699C53.2301 14.7699 53.5701 14.7499 53.9201 14.7399C54.2901 14.7299 54.6601 14.7099 55.0201 14.7099C55.9701 14.6999 56.9101 14.7099 57.8801 14.7099H59.1101C59.2501 14.7099 59.3601 14.8199 59.3601 14.9599V15.5299C59.3601 16.8899 59.3601 18.2499 59.3601 19.6099C59.3601 22.8799 59.3701 26.2599 59.3401 29.5899C59.3201 31.6399 60.7901 33.5799 62.8201 34.1999C63.1701 34.3099 63.5701 34.3599 64.0301 34.3599C67.6701 34.3699 71.3101 34.3699 74.9501 34.3699H78.6901C78.8301 34.3699 78.9401 34.4799 78.9401 34.6199V47.6799C78.9401 48.0899 78.7001 48.5599 78.2901 48.9399Z" fill="white"/>
<path d="M25.6493 9.56982C18.1393 9.56982 12.0293 15.6798 12.0293 23.1898C12.0293 30.6998 18.1393 36.8098 25.6493 36.8098C33.1593 36.8098 39.2693 30.6998 39.2693 23.1898C39.2693 15.6798 33.1593 9.56982 25.6493 9.56982ZM32.6693 22.6498L25.8493 31.1698C25.7993 31.2298 25.7293 31.2598 25.6493 31.2598C25.5693 31.2598 25.4993 31.2298 25.4493 31.1698L18.6293 22.6498C18.5693 22.5698 18.5593 22.4698 18.5993 22.3898C18.6393 22.2998 18.7293 22.2498 18.8293 22.2498H22.9293V15.3698C22.9293 15.2298 23.0393 15.1198 23.1793 15.1198H28.1393C28.2793 15.1198 28.3893 15.2298 28.3893 15.3698V22.2498H32.4893C32.5893 22.2498 32.6693 22.2998 32.7193 22.3898C32.7393 22.4698 32.7293 22.5798 32.6693 22.6498Z" fill="white"/>
</svg>
