<svg width="67" height="64" viewBox="0 0 67 64" fill="none" xmlns="http://www.w3.org/2000/svg">
<path d="M5.66992 18.5801V26.3301C5.66992 29.5201 5.66992 32.7201 5.66992 35.9101C5.66992 37.0401 6.05992 38.0401 6.76992 38.7401C7.44992 39.4101 8.38992 39.7501 9.47992 39.7501C15.3899 39.6901 21.3999 39.7001 27.1999 39.7101C29.4099 39.7101 31.6099 39.7201 33.8099 39.7201H47.1599C51.1299 39.7201 55.0999 39.7201 59.0699 39.7201C59.8199 39.7201 60.4799 39.4401 61.0799 38.8701C61.8499 38.1401 62.2299 37.2001 62.2299 35.9901C62.2299 31.9601 62.2299 27.9301 62.2299 23.8901V17.2601C62.2299 12.8501 62.2299 8.44006 62.2299 4.03006C62.2299 3.61006 62.1899 3.19006 62.1199 2.79006C61.8599 1.28006 60.4299 0.0600586 58.9299 0.0600586C44.1499 0.0800586 29.1199 0.0800569 14.5899 0.0700569H8.90992C8.10992 0.0700569 7.40992 0.370057 6.76992 1.00006C5.80992 1.95006 5.66992 3.16006 5.66992 4.32006C5.66992 9.08006 5.66992 13.8301 5.66992 18.5801ZM7.98993 3.70006C7.98993 2.69006 8.37992 2.30006 9.38992 2.30006H45.7699C49.9599 2.30006 54.2899 2.30006 58.5599 2.28006C58.5599 2.28006 58.5699 2.28006 58.5799 2.28006C59.5599 2.28006 59.9999 2.75006 60.0099 3.80006C60.0299 6.16006 60.0199 8.55006 60.0199 10.8601V16.2201C60.0199 22.7701 60.0199 29.3201 60.0099 35.8701C60.0099 36.2101 59.9099 36.5501 59.8199 36.8401C59.6199 37.4701 59.0199 37.4901 58.7999 37.4901C58.7899 37.4901 58.7899 37.4901 58.7799 37.4901C56.2499 37.4801 53.7199 37.4801 51.1899 37.4801H9.34992C8.34992 37.4801 7.98993 37.1201 7.98993 36.1101V3.70006Z" fill="white"/>
<path d="M66.5408 63.04C66.7508 62.77 66.8408 62.43 66.7708 62.18C66.4208 60.9 66.0908 59.62 65.7608 58.33L64.5008 53.47C63.9308 51.26 63.3508 49.04 62.7708 46.83C62.5208 45.88 62.2708 44.93 62.0208 43.98L61.6308 42.52L59.4808 43.06L64.2108 61.14H3.4808L8.2108 43.05L6.0808 42.54L6.0708 42.57C6.0308 42.68 6.0008 42.79 5.9708 42.89L2.7408 55.25C2.1408 57.55 1.5408 59.86 0.940796 62.16C0.860796 62.47 0.930796 62.79 1.1208 63.05C1.3208 63.31 1.6208 63.47 1.9508 63.48C2.2008 63.49 2.4608 63.48 2.7108 63.48H3.0608H65.8008C66.0608 63.47 66.3308 63.31 66.5408 63.04Z" fill="white"/>
<path d="M43.6916 57.0601C43.2416 55.0401 42.7716 53.0101 42.2916 51.0301C42.1316 50.3601 41.7316 50.0601 40.9916 50.0601C38.4516 50.0601 35.9116 50.0601 33.3716 50.0601C31.1716 50.0601 28.9716 50.0601 26.7716 50.0601C25.9516 50.0601 25.5716 50.3601 25.3916 51.1301C25.1316 52.2401 24.8816 53.3501 24.6316 54.4601C24.4516 55.2401 24.2816 56.0301 24.1016 56.8101C23.9916 57.3001 24.0416 57.7001 24.2516 57.9601C24.4616 58.2201 24.8216 58.3501 25.3016 58.3501H33.6516H36.1616C38.3116 58.3501 40.4616 58.3501 42.6016 58.3501C42.9316 58.3501 43.2616 58.1901 43.4716 57.9201C43.6716 57.6701 43.7516 57.3601 43.6916 57.0601ZM26.5516 55.9901L26.6016 55.7801C26.6516 55.5501 26.7016 55.3201 26.7516 55.1001C26.8616 54.5901 26.9816 54.0901 27.1016 53.5901C27.3716 52.5501 27.4516 52.4801 28.5416 52.4801C28.5516 52.4801 28.5516 52.4801 28.5616 52.4801C32.2916 52.4801 36.0216 52.4901 39.7416 52.4901C39.8216 52.4901 39.9116 52.4901 40.0116 52.5001L40.3116 52.5201L41.1616 56.0001H26.5516V55.9901Z" fill="white"/>
<path d="M10.7505 5.42992L10.7405 10.3099C10.7405 13.2099 10.7305 16.1099 10.7305 19.0099C10.7305 23.2699 10.7405 27.5299 10.7505 31.7899C10.7505 32.0299 10.7905 32.2299 10.8605 32.3699C11.1405 32.9199 11.6505 33.1399 12.2705 32.9899C12.7605 32.8799 13.1005 32.3599 13.1005 31.7399V7.83992H24.7205C33.7205 7.83992 42.7105 7.83992 51.7105 7.83992C52.0905 7.83992 52.4705 7.79992 52.8005 7.75992C53.4405 7.68992 53.6905 7.21992 53.7805 6.83992C53.9005 6.36992 53.7405 5.93992 53.3705 5.74992C52.9705 5.54992 52.4705 5.43992 52.0005 5.43992C40.2705 5.42992 28.5505 5.41992 16.8205 5.42992H10.7505Z" fill="white"/>
<path d="M39.4903 24.5599C39.4503 24.4599 39.4203 24.3599 39.3903 24.2599C39.3103 24.0199 39.2303 23.7699 39.1303 23.5399C38.2703 21.5399 37.4103 19.5299 36.5503 17.5299L34.5303 12.8099C34.2803 12.2199 33.9003 11.9199 33.4103 11.9199C33.4003 11.9199 33.4003 11.9199 33.3903 11.9199C32.8603 11.9299 32.5303 12.1999 32.2903 12.8199C31.9203 13.8099 31.5403 14.7899 31.1603 15.7699C30.8503 16.5799 30.5303 17.3899 30.2203 18.2099C29.5503 19.9499 28.9003 21.6999 28.2403 23.4499L27.9903 24.1099C27.8203 24.5499 27.8703 24.9199 28.1203 25.2399C28.3903 25.5799 28.7803 25.7399 29.1703 25.6799C29.5703 25.6199 29.9103 25.3299 30.0703 24.9099L30.1703 24.6499C30.5203 23.7499 30.8803 22.8299 31.2103 21.9099C31.3303 21.5699 31.5403 21.4399 31.9203 21.4299C33.1503 21.4499 34.2403 21.4599 35.2703 21.4499H35.2803C35.6003 21.4499 35.8203 21.5299 35.9703 21.8999C36.3203 22.7699 36.7003 23.6299 37.0703 24.4799L37.3103 24.9999C37.5403 25.5099 38.0203 25.7599 38.5803 25.6399C39.1203 25.5299 39.4203 25.1699 39.4903 24.5599ZM32.2603 19.2099L33.4703 16.0199L34.8203 19.2099H32.2603Z" fill="white"/>
<path d="M27.9711 18.5001C28.8311 17.1101 28.6411 15.0401 27.5311 13.8001C26.5711 12.7301 25.2911 12.1801 23.6111 12.1301C23.2711 12.1201 22.9211 12.1201 22.5811 12.1201C22.3011 12.1201 22.0211 12.1201 21.7411 12.1201C21.4611 12.1201 21.1811 12.1201 20.9011 12.1201C20.3311 12.1201 19.9511 12.2301 19.7111 12.4701C19.4811 12.7001 19.3711 13.0801 19.3711 13.6501L19.3811 21.7901C19.3811 22.0101 19.3811 22.2301 19.3811 22.4501C19.3711 23.0901 19.3711 23.7401 19.4311 24.3801C19.4611 24.6401 19.7011 25.0001 19.9511 25.1501C20.3111 25.3701 20.7011 25.3901 21.0311 25.2101C21.4011 25.0001 21.6311 24.5801 21.6411 24.0701C21.6511 23.3801 21.6511 22.6901 21.6411 21.9801V20.8501H22.4611C22.9111 20.8501 23.3311 20.8501 23.7611 20.8501C25.6111 20.8101 27.0311 20.0201 27.9711 18.5001ZM21.8611 18.6701L21.6811 18.6801V14.3101L21.8611 14.3201C22.1111 14.3301 22.3611 14.3401 22.6011 14.3501C23.1611 14.3701 23.6911 14.3901 24.2211 14.4501C25.3211 14.5601 26.1911 15.3501 26.2611 16.2901C26.3411 17.3801 25.6211 18.2801 24.5011 18.4901C23.9111 18.6001 23.3211 18.6201 22.6911 18.6401C22.4111 18.6501 22.1411 18.6601 21.8611 18.6701Z" fill="white"/>
<path d="M47.9713 12.2802C47.6213 11.9102 47.0513 11.7002 46.5813 12.0802C46.2713 12.3302 46.0313 12.7002 45.8113 13.0702L45.7013 13.2402C45.1013 14.1902 44.5113 15.1402 43.9013 16.1302L43.0213 17.5502L42.7813 17.1202C42.5713 16.7302 42.3913 16.4202 42.2113 16.1002C42.0113 15.7302 41.8113 15.3602 41.6113 14.9902C41.1613 14.1502 40.6913 13.2902 40.2013 12.4502C40.0413 12.1702 39.7913 11.9802 39.5013 11.9102C39.4213 11.8902 39.3413 11.8802 39.2613 11.8802C39.0513 11.8802 38.8413 11.9402 38.6413 12.0702C38.1413 12.3902 38.0113 13.0302 38.3213 13.6202L38.8813 14.6802C39.7013 16.2402 40.5613 17.8602 41.3713 19.4702C41.5413 19.8102 41.6513 20.2502 41.6613 20.7002C41.6813 21.4002 41.6813 22.1202 41.6713 22.8102C41.6713 23.3002 41.6713 23.7802 41.6713 24.2702C41.6813 24.8602 42.1913 25.3402 42.8113 25.3402C42.8113 25.3402 42.8113 25.3402 42.8213 25.3402C43.3813 25.3402 43.8913 24.8202 43.8913 24.2602C43.8913 24.0502 43.9013 23.8302 43.9013 23.6202C43.9113 23.0802 43.9313 22.5302 43.8813 21.9902C43.8013 21.0002 43.8313 19.7302 44.7913 18.6602C44.8313 18.6102 44.8713 18.5602 44.9013 18.5102L45.2913 17.9102C46.2013 16.5202 47.1113 15.1302 48.0113 13.7302C48.3813 13.1902 48.3513 12.6802 47.9713 12.2802Z" fill="white"/>
<path d="M54.7513 26.8902C54.7513 26.3602 54.4313 25.7802 53.8413 25.7602C51.8013 25.7002 49.9013 25.6702 48.0513 25.6602C47.5713 25.6602 47.1813 26.1502 47.1313 26.6102C46.9313 28.3202 46.7213 30.0302 46.5013 31.7502C46.4313 32.3302 46.7713 32.8902 47.3013 33.0602C47.8613 33.2302 48.4713 32.9502 48.6713 32.4402C48.7513 32.2302 48.7713 31.9902 48.8013 31.7402C48.8113 31.6402 48.8213 31.5401 48.8313 31.4501C48.8713 31.1201 48.9113 30.7802 48.9613 30.4102L49.0713 29.4702L49.5313 29.9802C49.6413 30.1102 49.7313 30.2002 49.8113 30.2902L50.6513 31.1602C51.4413 31.9802 52.2313 32.8002 53.0213 33.6102C53.5113 34.1102 54.1513 34.1402 54.6213 33.6802C55.1313 33.1802 55.1313 32.6002 54.6113 32.0502C54.0913 31.5002 53.5613 30.9502 53.0313 30.4002C52.7013 30.0502 52.3613 29.7102 52.0313 29.3602C51.8013 29.1302 51.5813 28.8902 51.3313 28.6202L50.6813 27.9202H51.2913C51.4013 27.9202 51.4813 27.9202 51.5613 27.9202C51.7813 27.9302 52.0013 27.9401 52.2213 27.9501C52.6813 27.9701 53.1613 28.0002 53.6313 27.9902C54.2613 27.9702 54.7513 27.5002 54.7513 26.8902Z" fill="white"/>
</svg>
