<svg width="72" height="75" viewBox="0 0 72 75" fill="none" xmlns="http://www.w3.org/2000/svg">
<path d="M51.24 51.0799C55.72 50.0899 60.23 49.1499 64.02 46.2999C64.01 46.2499 64.01 46.2099 64 46.1599C63.65 46.0599 63.3 45.9599 62.95 45.8699C62.14 45.6799 61.53 45.2499 61.2 44.4599C60.78 43.4499 61.12 42.2599 62.05 41.6899C63.33 40.9099 64.64 40.1499 65.96 39.4299C67 38.8599 68.31 39.2299 68.92 40.2499C69.68 41.5099 70.42 42.7899 71.13 44.0699C71.61 44.9399 71.51 45.7999 70.89 46.5699C70.24 47.3799 69.38 47.5899 68.39 47.3299C67.78 47.1699 67.16 46.9899 66.55 46.8399C66.43 46.8099 66.24 46.8499 66.17 46.9299C64.88 48.3599 63.24 49.2899 61.52 50.0899C59.14 51.1899 56.64 51.9399 54.09 52.5199C52.68 52.8399 51.25 53.0799 49.83 53.3699C49.69 53.3999 49.53 53.4899 49.45 53.5999C44.74 60.2699 40.03 66.9399 35.32 73.6099C35.24 73.7199 35.17 73.8299 35.09 73.9399C34.6 74.6399 33.82 74.6399 33.32 73.9399C31.73 71.6899 30.13 69.4499 28.54 67.1899C25.36 62.6799 22.19 58.1599 19 53.6499C18.89 53.4999 18.68 53.3699 18.5 53.3399C14.49 52.6399 10.53 51.7599 6.79998 50.0699C5.33998 49.4099 3.96 48.6199 2.79 47.5099C2.03 46.7899 1.43001 45.9699 1.14001 44.9599C0.78001 43.6799 1.01999 42.4799 1.73999 41.3799C2.58999 40.0699 3.78999 39.1399 5.14999 38.4299C6.43999 37.7599 7.8 37.1999 9.13 36.6199C9.43 36.4899 9.47998 36.3899 9.35998 36.0899C8.61998 34.2199 8.03999 32.2999 7.67999 30.3199C7.33999 28.4499 7.33999 26.5699 7.52999 24.6799C7.88999 21.1299 8.88 17.7599 10.6 14.6399C14.08 8.3299 19.24 4.0099 26.09 1.7699C30.21 0.419903 34.44 0.159904 38.72 0.899904C43.88 1.7899 48.39 4.0099 52.26 7.5399C55.87 10.8299 58.4 14.8299 59.84 19.4899C60.76 22.4799 61.17 25.5499 60.94 28.6799C60.82 30.3299 60.44 31.9399 59.95 33.5199C58.58 37.9499 56.47 42.0399 54.16 46.0299C53.23 47.6299 52.23 49.1899 51.27 50.7699C51.23 50.8299 51.21 50.8999 51.18 50.9699C51.2 51.0199 51.22 51.0499 51.24 51.0799ZM32.74 52.5499C38.78 52.5499 43.4 52.2599 47.99 51.5999C48.29 51.5599 48.47 51.4399 48.62 51.1899C49.64 49.5399 50.71 47.9199 51.7 46.2499C54.02 42.3799 56.16 38.4199 57.65 34.1399C58.33 32.1699 58.88 30.1699 58.96 28.0799C59.12 24.1399 58.38 20.3499 56.64 16.8199C52.66 8.7699 46.2 4.0499 37.31 2.7399C33.82 2.2299 30.36 2.5699 26.99 3.6199C21.45 5.3399 17.04 8.6099 13.75 13.3799C11.36 16.8499 9.98999 20.6999 9.55999 24.8899C9.32999 27.0999 9.44001 29.2799 9.98001 31.4399C10.62 34.0099 11.59 36.4499 12.72 38.8299C14.69 42.9899 17.06 46.9299 19.56 50.7899C20.07 51.5699 20.07 51.5699 21 51.6899C25.36 52.2699 29.74 52.5599 32.74 52.5499ZM34.24 71.5999C35.42 70.2599 46.69 54.2999 46.77 53.8299C38.4 54.8299 30.04 54.8199 21.66 53.8099C21.79 54.3199 33.71 71.1399 34.24 71.5999ZM17.28 51.0299C17.22 50.9199 17.19 50.8399 17.14 50.7699C14.66 46.8599 12.31 42.8699 10.42 38.6299C10.33 38.4299 10.22 38.3599 10.01 38.4499C8.77001 38.9999 7.51 39.5199 6.29 40.1199C5.33 40.5999 4.46001 41.2399 3.76001 42.0699C3.40001 42.4899 3.12 42.9599 3.04 43.5199C2.93 44.3099 3.24001 44.9599 3.73001 45.5499C4.63001 46.6299 5.80998 47.3299 7.04998 47.9399C10.2 49.4899 13.57 50.3299 16.99 51.0399C17.06 51.0399 17.15 51.0299 17.28 51.0299ZM69.04 45.4099C69.37 45.4099 69.46 45.1899 69.28 44.8799C68.63 43.7399 67.97 42.6099 67.31 41.4599C67.15 41.1799 66.97 41.1599 66.71 41.3099C65.6 41.9599 64.47 42.5999 63.36 43.2599C63.23 43.3399 63.16 43.4999 63.06 43.6199C63.18 43.7199 63.29 43.8599 63.43 43.8999C64.88 44.2999 66.33 44.6899 67.78 45.0799C68.22 45.1899 68.65 45.3099 69.04 45.4099Z" fill="white"/>
<path d="M34.2208 8.08973C44.5708 8.02973 53.4308 16.4097 53.4708 27.3397C53.5108 37.9297 44.8208 46.5797 34.2308 46.5897C23.5508 46.5897 14.9408 37.9497 14.9708 27.2097C15.0008 16.5597 23.8608 7.98973 34.2208 8.08973ZM51.2308 24.6597C51.2108 24.4797 51.2008 24.3897 51.1808 24.2897C51.0708 23.7797 50.9608 23.2697 50.8308 22.7597C50.4608 21.3597 49.9008 20.0397 49.1808 18.7897C49.1208 18.6897 48.9408 18.5797 48.8608 18.6097C47.8008 18.9597 46.7108 18.9697 45.6108 18.9497C44.7308 18.9297 43.8508 18.9197 42.9708 18.9297C42.2108 18.9397 41.5108 19.1697 40.8408 19.5397C40.1908 19.8997 39.5208 20.2397 38.8208 20.4997C37.2408 21.0897 35.8808 20.7397 34.7708 19.4597C34.3408 18.9697 33.9708 18.4197 33.6308 17.8497C33.1008 16.9697 32.6308 16.0597 32.1408 15.1597C32.0008 14.9097 31.8308 14.8297 31.5408 14.8597C30.8208 14.9297 30.1008 14.9697 29.3708 15.0097C27.6508 15.0897 26.4508 14.2797 25.6508 12.8097C25.5108 12.5497 25.4108 12.5097 25.1508 12.6797C22.0908 14.6197 19.8308 17.2397 18.3808 20.5497C18.3308 20.6597 18.3008 20.7697 18.2608 20.9197C18.3908 20.9497 18.4908 20.9697 18.5808 20.9897C19.6308 21.1997 20.6608 21.4897 21.5908 22.0597C22.9608 22.8997 23.5408 24.0897 23.2208 25.6597C23.0508 26.4797 22.7208 27.2697 22.4408 28.0697C22.2608 28.5897 22.0208 29.0997 21.8308 29.6197C21.6808 30.0197 21.8308 30.3497 22.1808 30.5697C22.4408 30.7297 22.7308 30.8697 23.0108 31.0097C23.8108 31.4197 24.6608 31.7597 25.4108 32.2597C26.9308 33.2797 27.4608 34.6397 27.0108 36.4097C26.5608 38.1797 25.7108 39.7797 24.6708 41.2697C24.5208 41.4797 24.5308 41.5897 24.7508 41.7097C25.6808 42.2097 26.6108 42.7197 27.5508 43.1997C27.9308 43.3897 28.3408 43.5097 28.8408 43.6997C28.7308 43.3197 28.6408 43.0497 28.5608 42.7797C28.0908 41.0297 28.3108 39.4197 29.5008 37.9997C30.2608 37.0897 31.1108 36.2597 32.1208 35.6297C32.4508 35.4197 32.4808 35.2097 32.3808 34.8797C32.1008 33.9897 31.8108 33.0997 31.5508 32.1997C31.2508 31.1697 31.0208 30.1297 31.0708 29.0397C31.1308 27.7697 31.8208 26.8197 33.0408 26.5297C33.6908 26.3697 34.3908 26.3197 35.0608 26.3797C35.9308 26.4597 36.7808 26.7197 37.6508 26.8797C38.3408 27.0097 39.0308 27.1497 39.7308 27.1897C41.1008 27.2697 42.1608 26.5697 43.1208 25.6897C43.6608 25.1997 44.1608 24.6797 44.7008 24.1997C45.6208 23.3797 46.7008 23.0297 47.9208 23.3197C48.4908 23.4597 49.0408 23.6797 49.5908 23.8997C50.1208 24.1197 50.6308 24.3797 51.2308 24.6597ZM34.2408 44.5797C36.1508 44.5397 37.9908 44.2197 39.7908 43.6097C46.6808 41.2997 51.4308 34.6697 51.4308 27.3797C51.4308 27.1597 51.3708 27.0297 51.1708 26.9297C50.2808 26.4997 49.4008 26.0297 48.5008 25.6297C47.0508 24.9897 46.6408 25.0897 45.4908 26.1897C44.9108 26.7397 44.3308 27.2997 43.7108 27.7997C42.3308 28.8997 40.7508 29.3997 38.9908 29.1497C38.0608 29.0197 37.1508 28.7997 36.2408 28.6097C35.4108 28.4397 34.5908 28.2097 33.7308 28.3997C33.2808 28.4997 33.0808 28.6597 33.1008 29.1197C33.1208 29.7197 33.1708 30.3297 33.3108 30.8997C33.5808 31.9797 33.9308 33.0397 34.2508 34.1097C34.7508 35.7797 34.5608 36.3597 33.1408 37.3497C32.3308 37.9197 31.6208 38.5897 30.9908 39.3497C30.6008 39.8297 30.3808 40.3797 30.3508 40.9997C30.3008 42.1297 30.7408 43.1097 31.3208 44.0397C31.4108 44.1897 31.6208 44.3297 31.7808 44.3497C32.6008 44.4597 33.4208 44.5097 34.2408 44.5797ZM47.7708 16.8297C47.7408 16.6997 47.7408 16.6597 47.7208 16.6397C47.4808 16.3597 47.2508 16.0697 47.0008 15.7997C44.3708 12.9197 41.1408 11.1097 37.3108 10.3897C35.1508 9.98973 32.9708 9.98973 30.8308 10.4497C29.7108 10.6897 28.6408 11.1097 27.5408 11.4497C27.3908 11.4997 27.2708 11.5697 27.3708 11.7597C27.6908 12.3497 28.1908 13.0397 29.1608 12.9797C29.9808 12.9297 30.8108 12.8997 31.6308 12.8197C32.5108 12.7397 33.1708 13.0697 33.6408 13.8097C33.8708 14.1697 34.0908 14.5297 34.3008 14.8997C34.8408 15.8197 35.3208 16.7797 35.9208 17.6697C36.7008 18.8397 37.3008 18.9797 38.5908 18.4097C39.0008 18.2297 39.4008 18.0397 39.7808 17.8097C40.8208 17.1697 41.9608 16.8997 43.1608 16.8897C44.2408 16.8797 45.3208 16.9197 46.4108 16.9197C46.8508 16.9297 47.2908 16.8697 47.7708 16.8297ZM22.7808 40.2897C22.9108 40.1997 22.9408 40.1897 22.9608 40.1597C23.0108 40.0997 23.0608 40.0397 23.1008 39.9697C23.9208 38.7697 24.5608 37.4697 25.0008 36.0797C25.3008 35.1297 25.1208 34.5097 24.3008 33.9497C23.7608 33.5797 23.1508 33.3197 22.5708 33.0097C22.0408 32.7297 21.4708 32.5097 20.9708 32.1797C20.2208 31.6897 19.7808 30.9797 19.7408 30.0597C19.7108 29.4197 19.9008 28.8297 20.1408 28.2497C20.4608 27.4797 20.8208 26.7197 21.0908 25.9297C21.5208 24.6597 21.2408 24.0197 20.0008 23.5197C19.2908 23.2397 18.5308 23.0997 17.7908 22.8997C17.5808 22.8397 17.5308 22.9997 17.4908 23.1597C16.9708 25.2597 16.8408 27.3897 17.1208 29.5397C17.5308 32.6397 18.6808 35.4397 20.6208 37.8897C21.3008 38.7297 22.0608 39.4897 22.7808 40.2897Z" fill="white"/>
</svg>
