<svg width="16" height="12" viewBox="0 0 16 12" fill="none" xmlns="http://www.w3.org/2000/svg">
<g clip-path="url(#clip0_30_4)">
<path d="M9.68958 1.01878C10.3813 0.337959 11.1975 0 12.1431 0C13.0886 0 13.8899 0.274286 14.5468 0.822857C15.2037 1.37143 15.6516 2.09143 15.8855 2.98776C16.0547 3.71755 16.0299 4.60408 15.8109 5.65225C15.5919 6.70041 15.1938 7.6702 14.6215 8.56653C14.0491 9.42857 13.3922 10.1584 12.6457 10.7559C11.9042 11.3535 11.2473 11.7502 10.675 11.951C10.237 12.049 9.96827 12 9.86376 11.7992C9.75925 11.5984 9.86376 11.3682 10.1673 11.1037C10.4709 10.9371 10.7994 10.6873 11.1527 10.3592C11.5061 10.0261 11.8694 9.6098 12.2426 9.1151C12.4815 8.81633 12.7253 8.4098 12.9742 7.89551C13.228 7.38123 13.4022 6.89143 13.5067 6.42612C12.9344 6.89143 12.2824 7.03837 11.5608 6.87673C10.8342 6.7102 10.2868 6.48 9.91851 6.18122C9.54526 5.88245 9.24168 5.5151 9.00778 5.08408C8.77387 4.65306 8.65443 4.11918 8.65443 3.49224C8.65443 2.52735 9.0028 1.70939 9.68958 1.02857V1.01878ZM1.03515 1.01878C1.7269 0.337959 2.54806 0 3.49362 0C4.43919 0 5.24044 0.274286 5.89736 0.822857C6.55428 1.37143 7.00218 2.09143 7.23608 2.98776C7.40529 3.71755 7.3804 4.60408 7.16143 5.65225C6.94246 6.70041 6.54432 7.6702 5.97201 8.56653C5.39969 9.42857 4.74277 10.1584 4.00124 10.7559C3.25972 11.3535 2.6028 11.7502 2.02551 11.951C1.58756 12.049 1.31882 12 1.21431 11.7992C1.11477 11.5984 1.21431 11.3682 1.51788 11.1037C1.82146 10.9371 2.14992 10.6873 2.50327 10.3592C2.85661 10.0261 3.21991 9.6098 3.59316 9.1151C3.82706 8.81633 4.07589 8.4098 4.32473 7.89551C4.57854 7.38123 4.75272 6.89143 4.85723 6.42612C4.28491 6.89143 3.63297 7.03837 2.90638 6.87673C2.17978 6.7102 1.63235 6.48 1.26407 6.18122C0.890824 5.88245 0.587247 5.5151 0.353344 5.08408C0.11944 4.65306 0 4.11918 0 3.49224C0 2.52735 0.348367 1.70939 1.03515 1.02857V1.01878Z" fill="#231815"/>
</g>
<defs>
<clipPath id="clip0_30_4">
<rect width="16" height="12" fill="white"/>
</clipPath>
</defs>
</svg>
