<svg width="100" height="29" viewBox="0 0 100 29" fill="none" xmlns="http://www.w3.org/2000/svg">
<path d="M14.3572 28.1066C21.9494 28.1066 28.1041 21.9519 28.1041 14.3597C28.1041 6.76748 21.9494 0.612791 14.3572 0.612791C6.76501 0.612791 0.610322 6.76748 0.610322 14.3597C0.610322 21.9519 6.76501 28.1066 14.3572 28.1066Z" fill="black"/>
<path d="M14.3572 28.7169C6.44012 28.7169 0 22.2767 0 14.3597C0 6.44256 6.44012 0 14.3572 0C22.2743 0 28.7144 6.44012 28.7144 14.3597C28.7144 22.2792 22.2767 28.7169 14.3572 28.7169ZM14.3572 1.22064C7.11391 1.22064 1.22064 7.11391 1.22064 14.3597C1.22064 21.6054 7.11391 27.4962 14.3572 27.4962C21.6005 27.4962 27.4938 21.603 27.4938 14.3597C27.4938 7.11635 21.6029 1.22064 14.3572 1.22064Z" fill="#B7915A"/>
<path d="M17.3527 7.46791H19.7085V4.04034H15.9685C15.9685 4.04034 12.3651 4.48954 12.1259 8.12706V11.4863H9.00835V15.1921H12.1259V24.6814H15.9685V15.1897H19.0835L19.7085 11.4838H15.9685V8.40292C15.9685 8.40292 16.1052 7.46791 17.3527 7.46791Z" fill="#B7915A"/>
<path d="M85.6428 28.1066C93.235 28.1066 99.3897 21.9519 99.3897 14.3597C99.3897 6.76748 93.235 0.612791 85.6428 0.612791C78.0506 0.612791 71.8959 6.76748 71.8959 14.3597C71.8959 21.9519 78.0506 28.1066 85.6428 28.1066Z" fill="black"/>
<path d="M85.6428 28.7169C77.7257 28.7169 71.2856 22.2767 71.2856 14.3597C71.2856 6.44256 77.7257 0 85.6428 0C93.5599 0 100 6.44012 100 14.3597C100 22.2792 93.5599 28.7169 85.6428 28.7169ZM85.6428 1.22064C78.3995 1.22064 72.5062 7.11391 72.5062 14.3597C72.5062 21.6054 78.3995 27.4962 85.6428 27.4962C92.8861 27.4962 98.7794 21.603 98.7794 14.3597C98.7794 7.11635 92.8861 1.22064 85.6428 1.22064Z" fill="#B7915A"/>
<path d="M89.4317 5.39524H81.8539C78.9976 5.39524 76.6808 7.71202 76.6808 10.5683V18.1461C76.6808 21.0024 78.9976 23.3192 81.8539 23.3192H89.4317C92.288 23.3192 94.6048 21.0024 94.6048 18.1461V10.5683C94.6048 7.71202 92.288 5.39524 89.4317 5.39524ZM92.952 18.2804C92.952 20.1772 91.4164 21.7152 89.5196 21.7152H81.766C79.8691 21.7152 78.3311 20.1772 78.3311 18.2804V10.5244C78.3311 8.6275 79.8691 7.09193 81.766 7.09193H89.5196C91.4164 7.09193 92.952 8.62994 92.952 10.5244V18.2804Z" fill="#B7915A"/>
<path d="M85.6404 9.75293C83.0721 9.75293 80.9897 11.8353 80.9897 14.4036C80.9897 16.9718 83.0721 19.0542 85.6404 19.0542C88.211 19.0542 90.2934 16.9718 90.2934 14.4036C90.2934 11.8353 88.211 9.75293 85.6404 9.75293ZM85.6404 17.4186C83.9754 17.4186 82.6254 16.0685 82.6254 14.4036C82.6254 12.7386 83.9754 11.3886 85.6404 11.3886C87.3078 11.3886 88.6553 12.7386 88.6553 14.4036C88.6578 16.0685 87.3078 17.4186 85.6404 17.4186Z" fill="#B7915A"/>
<path d="M90.4473 8.4908C89.8491 8.4908 89.3633 8.97662 89.3633 9.57474C89.3633 10.1729 89.8491 10.6587 90.4473 10.6587C91.0454 10.6587 91.5312 10.1729 91.5312 9.57474C91.5312 8.97662 91.0478 8.4908 90.4473 8.4908Z" fill="#B7915A"/>
<path d="M50 28.1066C57.5922 28.1066 63.7469 21.9519 63.7469 14.3597C63.7469 6.76748 57.5922 0.612791 50 0.612791C42.4078 0.612791 36.2531 6.76748 36.2531 14.3597C36.2531 21.9519 42.4078 28.1066 50 28.1066Z" fill="black"/>
<path d="M50 28.7169C42.0829 28.7169 35.6428 22.2767 35.6428 14.3597C35.6428 6.44256 42.0829 0 50 0C57.9171 0 64.3572 6.44012 64.3572 14.3597C64.3572 22.2792 57.9171 28.7169 50 28.7169ZM50 1.22064C42.7567 1.22064 36.8635 7.11391 36.8635 14.3597C36.8635 21.6054 42.7567 27.4962 50 27.4962C57.2433 27.4962 63.1366 21.603 63.1366 14.3597C63.1366 7.11635 57.2433 1.22064 50 1.22064Z" fill="#B7915A"/>
<path d="M44.4608 13.039C44.2459 13.039 44.0628 13.1171 43.9115 13.2709C43.7601 13.4247 43.682 13.6127 43.682 13.8348C43.682 14.0545 43.7577 14.2425 43.9115 14.3988C44.0628 14.5526 44.2459 14.6307 44.4608 14.6307C44.678 14.6307 44.8636 14.5526 45.0198 14.3988C45.1761 14.245 45.2517 14.057 45.2517 13.8348C45.2517 13.6151 45.1736 13.4271 45.0198 13.2709C44.8636 13.1171 44.678 13.039 44.4608 13.039Z" fill="#B7915A"/>
<path d="M51.1059 13.0341C50.8911 13.0341 50.708 13.1122 50.5566 13.266C50.4053 13.4198 50.3272 13.6078 50.3272 13.8299C50.3272 14.0521 50.4028 14.2376 50.5566 14.3939C50.708 14.5477 50.8911 14.6258 51.1059 14.6258C51.3232 14.6258 51.5087 14.5477 51.665 14.3939C51.8212 14.2376 51.8969 14.0521 51.8969 13.8299C51.8969 13.6102 51.8188 13.4222 51.665 13.266C51.5112 13.1098 51.3232 13.0341 51.1059 13.0341Z" fill="#B7915A"/>
<path d="M55.5393 13.039C55.3245 13.039 55.1414 13.1171 54.99 13.2709C54.8387 13.4247 54.7605 13.6127 54.7605 13.8348C54.7605 14.0545 54.8362 14.2425 54.99 14.3988C55.1414 14.5526 55.3269 14.6307 55.5393 14.6307C55.7566 14.6307 55.9421 14.5526 56.0984 14.3988C56.2522 14.245 56.3303 14.057 56.3303 13.8348C56.3303 13.6151 56.2522 13.4271 56.0984 13.2709C55.9421 13.1171 55.7566 13.039 55.5393 13.039Z" fill="#B7915A"/>
<path d="M57.5094 7.19691H42.4931C41.3408 7.19691 40.3984 8.13925 40.3984 9.29153V17.7848C40.3984 18.9371 41.3408 19.8794 42.4931 19.8794H48.3888C48.3888 19.8794 49.5289 22.9872 49.9414 22.9872C50.3565 22.9872 51.5893 19.8794 51.5893 19.8794H57.5094C58.6617 19.8794 59.604 18.9371 59.604 17.7848V9.28909C59.6016 8.13925 58.6617 7.19691 57.5094 7.19691ZM45.9792 15.0359C45.6814 15.3703 45.2249 15.5119 44.7293 15.5119C44.2801 15.5119 43.953 15.3777 43.7088 15.1921H43.6942V15.4314H42.5663V10.5146H43.6942V12.3944H43.7088C44.014 12.1332 44.4192 12.0453 44.8977 12.0307C45.3054 12.016 45.7302 12.2723 45.9865 12.5677C46.2404 12.8607 46.426 13.3221 46.426 13.8323C46.4235 14.3841 46.2771 14.7014 45.9792 15.0359ZM48.3985 15.4704H47.2487C47.2487 15.4704 47.2487 12.8875 47.2487 12.4261C47.2487 11.7231 46.6945 11.6327 46.6945 11.6327V10.4145C46.6945 10.4145 48.3058 10.5122 48.3985 12.4652C48.3985 13.0267 48.3985 15.4704 48.3985 15.4704ZM52.91 14.5354C52.8124 14.7551 52.6732 14.9529 52.4877 15.1262C52.3046 15.2971 52.0947 15.4289 51.8578 15.5193C51.621 15.6096 51.3696 15.656 51.1059 15.656C50.8472 15.656 50.6006 15.6096 50.3662 15.5193C50.1319 15.4289 49.9219 15.2971 49.7364 15.1262C49.5459 14.9456 49.4019 14.7478 49.3043 14.5305C49.2066 14.3133 49.1578 14.0813 49.1578 13.8372C49.1578 13.5931 49.2066 13.3612 49.3043 13.1439C49.4019 12.9266 49.5459 12.7264 49.7364 12.5482C49.9219 12.3773 50.1319 12.2455 50.3662 12.1552C50.6006 12.0648 50.8472 12.0185 51.1059 12.0185C51.3696 12.0185 51.621 12.0648 51.8578 12.1552C52.0947 12.2455 52.3046 12.3773 52.4877 12.5482C52.6732 12.7215 52.8124 12.9168 52.91 13.139C53.0077 13.3587 53.0541 13.5931 53.0541 13.8397C53.0565 14.0838 53.0077 14.3157 52.91 14.5354ZM57.4337 15.0261C57.4337 15.8903 57.2702 16.4152 56.8845 16.7814C56.4255 17.216 55.7737 17.2477 55.2244 17.1696V16.2761C55.6833 16.3224 56.3132 16.0197 56.3132 15.4265V15.197H56.2985C56.0422 15.551 55.6663 15.6804 55.1658 15.6804C54.7019 15.6804 54.3016 15.5095 54.0306 15.1921C53.7596 14.8748 53.6229 14.4475 53.6229 13.9129C53.6229 13.3123 53.7743 12.8363 54.077 12.4847C54.3797 12.1308 54.8118 11.9672 55.3049 11.9672C55.7468 11.9672 56.0251 12.0746 56.2985 12.3212H56.3132V12.0526H57.4337V15.0261Z" fill="#B7915A"/>
</svg>
