<svg width="80" height="81" viewBox="0 0 80 81" fill="none" xmlns="http://www.w3.org/2000/svg">
<path d="M30.3503 71.5401C30.1303 71.5201 29.9003 71.5201 29.6703 71.5201C25.4403 71.5201 21.2003 71.5101 16.9703 71.5401C16.2603 71.5501 15.8003 71.4801 15.4503 70.7001C14.9003 69.4601 13.8303 68.7001 12.5903 68.1501C10.1003 67.0701 7.14031 67.6801 5.37031 69.7201C5.05031 70.0901 4.79032 70.5201 4.47032 70.8901C4.37032 71.0001 4.09033 71.1201 4.01033 71.0701C3.46033 70.7201 3.05033 70.2201 2.89033 69.5901C2.77033 69.1201 2.77031 68.6101 2.77031 68.1201C2.76031 62.6401 2.77031 57.1701 2.77031 51.6901C2.76031 51.6901 2.76032 51.6901 2.75032 51.6901C2.75032 46.2601 2.74032 40.8201 2.75032 35.3901C2.75032 33.0901 3.38031 30.9701 4.77031 29.1101C6.37031 26.9701 8.51033 25.8701 11.1703 25.8101C13.2403 25.7601 15.3203 25.7901 17.3903 25.7901C25.0903 25.7901 32.8003 25.7701 40.5003 25.8101C41.5703 25.8201 42.6503 26.0401 43.7003 26.2901C44.3603 26.4401 44.9603 26.8301 45.5903 27.1101C46.1103 27.3401 46.7303 27.1301 47.0703 26.6301C47.3403 26.2201 47.2603 25.9001 46.7603 25.4301C46.6703 25.3401 46.5703 25.2601 46.4603 25.1901C45.2303 24.3701 43.8303 24.0101 42.4103 23.8501C40.8003 23.6801 39.1803 23.7001 37.5603 23.6601C37.1803 23.6501 37.0103 23.6001 37.0103 23.1601C37.0303 18.0001 37.0503 12.8301 37.0403 7.67008C37.0403 6.62008 37.0203 5.54008 36.7903 4.53008C36.4103 2.82008 35.4003 1.54008 33.7403 0.840084C32.6003 0.360084 31.3903 0.270082 30.1803 0.260082C27.5703 0.240082 24.9603 0.250082 22.3503 0.260082C21.6603 0.260082 20.9503 0.230083 20.2903 0.390083C18.3303 0.870083 17.0603 2.18009 16.2303 3.97009C15.8103 4.87009 15.8503 5.83008 15.8503 6.79008C15.8603 12.2801 15.8603 17.7701 15.8703 23.2601C15.8703 23.6301 15.6903 23.6401 15.4303 23.6401C14.0603 23.6501 12.6903 23.6401 11.3203 23.6701C9.34033 23.7201 7.4903 24.1701 5.8303 25.3301C2.5903 27.5801 0.810307 30.7001 0.770307 34.6001C0.670307 44.7201 0.720329 54.8401 0.730329 64.9501C0.730329 66.6101 0.750311 68.2801 0.930311 69.9301C1.10031 71.5101 1.89032 72.7401 3.53032 73.2401C3.63032 73.2701 3.74033 73.4301 3.76033 73.5401C3.83033 73.9601 3.87031 74.3801 3.93031 74.7901C4.21031 76.6601 5.09033 78.1901 6.70033 79.1801C8.83033 80.5001 11.0403 80.5001 13.2203 79.2301C15.1503 78.1001 16.2003 76.4101 16.3003 74.1701C16.3203 73.7501 16.4903 73.7001 16.8503 73.7001C20.8403 73.6901 24.8403 73.6701 28.8303 73.6501C29.3203 73.6501 29.8203 73.6501 30.3103 73.6301C30.8803 73.6001 31.3403 73.1101 31.3403 72.5401C31.3503 72.0401 30.9203 71.5901 30.3503 71.5401ZM31.0703 23.6801C28.0403 23.6501 25.0103 23.6501 21.9703 23.6301C21.4303 23.6301 21.4403 23.6201 21.4403 23.0701C21.4603 17.7501 21.4803 12.4301 21.5003 7.12008C21.5003 6.98008 21.5003 6.84008 21.5003 6.62008C21.7503 6.62008 21.9403 6.62008 22.1403 6.62008C25.0703 6.61008 28.0103 6.60008 30.9403 6.59008C31.5303 6.59008 31.5303 6.59008 31.5303 7.20008C31.5403 12.5201 31.5503 17.8401 31.5803 23.1501C31.5803 23.5501 31.4803 23.6801 31.0703 23.6801ZM17.9703 22.8601C17.9703 17.9601 17.9703 13.0701 17.9703 8.17008C17.9703 7.41008 17.9803 6.65008 18.0303 5.89008C18.1303 4.31008 18.9203 3.19008 20.4003 2.60008C20.8003 2.44008 21.2503 2.36008 21.6703 2.35008C24.8603 2.33008 28.0503 2.29008 31.2303 2.36008C32.9003 2.40008 34.0303 3.01008 34.5803 4.46008C34.8203 5.09008 34.9403 5.81009 34.9403 6.49009C34.9503 11.8901 34.9203 17.3001 34.9003 22.7001C34.9003 23.6701 34.9003 23.6701 33.9303 23.6501C33.7003 23.6501 33.5903 23.5601 33.6003 23.3201C33.6103 23.1401 33.6003 22.9501 33.6003 22.7701C33.6003 17.8301 33.6103 12.9001 33.6003 7.96008C33.6003 7.29008 33.5603 6.60008 33.4403 5.94008C33.2603 5.03008 32.6803 4.61008 31.6603 4.48008C31.1303 4.41008 30.5903 4.41008 30.0503 4.41008C27.2903 4.42008 24.5203 4.43009 21.7603 4.47009C21.3603 4.48009 20.9503 4.57008 20.5703 4.71008C19.9803 4.92008 19.6203 5.38008 19.5403 6.00008C19.4503 6.65008 19.3903 7.32008 19.3803 7.98008C19.3703 13.0701 19.3703 18.1701 19.3803 23.2601C19.3803 23.5701 19.2903 23.6601 19.0003 23.6401C18.6703 23.6201 18.3303 23.6401 17.9803 23.6401C17.9703 23.3401 17.9703 23.1001 17.9703 22.8601ZM13.0303 76.5701C12.1403 77.4801 10.9803 77.8801 10.0803 77.8901C8.1103 77.8701 6.70033 76.9401 6.23033 75.4201C5.45033 72.9401 6.98032 69.8601 10.0903 69.7601C11.8603 69.7001 13.5403 71.1301 13.9803 72.8701C14.3403 74.3101 14.0303 75.5501 13.0303 76.5701Z" fill="white"/>
<path d="M76.9697 39.1699C76.9697 38.3599 76.8997 37.5299 76.6897 36.7599C76.2197 35.0599 75.1197 33.8699 73.4297 33.3399C72.6697 33.0999 71.8297 33.0299 71.0197 33.0199C68.8197 32.9999 66.6197 33.0399 64.4197 33.0799C64.0497 33.0899 63.9697 32.9699 63.9797 32.6199C64.0197 31.4099 64.0297 30.1899 64.0297 28.9799C64.0297 28.7299 64.1197 28.6199 64.3297 28.5499C64.8197 28.5999 65.3197 28.6399 65.8297 28.6399C73.3397 28.6399 79.4497 22.5299 79.4497 15.0199C79.4497 7.5099 73.3397 1.3999 65.8297 1.3999C58.3197 1.3999 52.2097 7.5099 52.2097 15.0199C52.2097 17.6099 52.9497 20.0199 54.1997 22.0799C53.6997 22.0699 53.1897 22.0699 52.6897 22.0699C50.8297 22.0499 49.2497 23.2799 48.8997 25.1299C48.6497 26.4399 49.2297 27.7899 50.3497 28.4199C50.4697 28.4899 50.5697 28.6999 50.5797 28.8499C50.6397 30.0999 50.6597 31.3599 50.7197 32.6099C50.7397 32.9999 50.5997 33.0799 50.2397 33.0799C48.5197 33.0599 46.7997 33.0699 45.0797 33.0699C43.7797 33.0699 42.4797 33.0999 41.2197 33.4599C39.8097 33.8499 38.7197 34.6399 38.1597 36.0599C37.7797 37.0199 37.7097 38.0099 37.7097 39.0099C37.6897 49.7499 37.6997 60.4899 37.6797 71.2199C37.6797 72.6999 38.0397 73.9999 38.9797 75.1399C39.5997 75.8799 40.2997 76.5499 41.2997 76.7199C41.6397 76.7799 41.7697 76.9199 41.8397 77.2399C42.0597 78.2199 42.5397 79.0699 43.3597 79.6599C44.8197 80.7099 46.3597 80.7699 47.9097 79.8599C48.8497 79.3099 49.4397 78.5099 49.4797 77.3699C49.5097 76.3899 49.3397 76.4399 50.4497 76.4399C55.4297 76.4099 60.4097 76.4199 65.3897 76.3999C65.6997 76.3999 65.7797 76.5199 65.7897 76.7999C65.7897 77.1199 65.7797 77.4499 65.8497 77.7699C66.1297 79.0999 67.2397 80.0999 68.5797 80.3899C69.5697 80.6099 70.4897 80.4799 71.3797 80.0899C72.6997 79.5099 73.2797 78.4299 73.3097 77.0299C73.3197 76.6899 73.4397 76.5099 73.7697 76.4399C74.4697 76.2999 75.0397 75.9099 75.5397 75.4199C76.5797 74.3899 76.9997 73.1199 76.9997 71.6699C76.9897 66.1699 76.9997 60.6599 76.9997 55.1599H77.0097C76.9797 49.8099 76.9897 44.4899 76.9697 39.1699ZM61.9297 29.0199C61.8997 30.1999 61.8897 31.3899 61.8997 32.5699C61.8997 32.9299 61.8097 33.0599 61.4297 33.0599C58.6797 33.0399 55.9297 33.0299 53.1897 33.0299C52.9497 33.0299 52.8697 32.9499 52.8697 32.7099C52.8797 31.4699 52.8797 30.2299 52.8697 28.9899C52.8697 28.6899 53.0197 28.6499 53.2697 28.6499C54.6697 28.6599 56.0597 28.6499 57.4597 28.6499C57.4597 28.6499 57.4597 28.6499 57.4597 28.6399C58.8297 28.6399 60.1897 28.6499 61.5597 28.6299C61.8397 28.6499 61.9397 28.7099 61.9297 29.0199ZM58.8097 15.5499L65.6297 7.0299C65.6797 6.9699 65.7497 6.9399 65.8297 6.9399C65.9097 6.9399 65.9797 6.9699 66.0297 7.0299L72.8497 15.5499C72.9097 15.6299 72.9197 15.7299 72.8797 15.8099C72.8397 15.8999 72.7497 15.9499 72.6497 15.9499H68.5497V22.8299C68.5497 22.9699 68.4397 23.0799 68.2997 23.0799H64.7297C64.3197 22.6399 63.7797 22.3099 63.0897 22.1499V15.9499H58.9897C58.8897 15.9499 58.8097 15.8999 58.7597 15.8099C58.7397 15.7299 58.7497 15.6299 58.8097 15.5499ZM52.6097 24.2199C53.6797 24.2199 54.7497 24.2199 55.8197 24.2199C56.6497 25.1299 57.5997 25.9199 58.6497 26.5699C58.2197 26.5699 57.7997 26.5699 57.3697 26.5699C55.4197 26.5699 53.4797 26.5599 51.5297 26.5799C51.1497 26.5799 51.0297 26.4199 50.9897 26.1099C50.8197 24.9599 51.4497 24.2199 52.6097 24.2199ZM47.1897 75.3399H47.1797C47.1797 75.7799 47.1897 76.2099 47.1797 76.6499C47.1497 77.8099 46.2997 78.4099 45.1897 78.0499C44.9497 77.9699 44.6897 77.8999 44.4997 77.7499C44.3297 77.6199 44.1397 77.3899 44.1297 77.1999C44.0997 76.0899 44.0997 74.9799 44.1297 73.8599C44.1297 73.7599 44.3197 73.5699 44.4197 73.5699C45.1897 73.5399 45.9697 73.5499 46.7397 73.5399C47.0497 73.5399 47.2097 73.6599 47.1997 73.9899C47.1797 74.4399 47.1897 74.8899 47.1897 75.3399ZM68.6297 78.0299C68.2497 77.8499 68.0297 77.5599 68.0697 77.0899C68.1097 76.5899 68.0797 76.0799 68.0797 75.5699C68.0797 74.9899 68.0897 74.4099 68.0797 73.8399C68.0797 73.6199 68.1597 73.5299 68.3697 73.5399C69.1297 73.5499 69.8897 73.5599 70.6497 73.5699C70.8797 73.5699 70.9697 73.6699 70.9697 73.8999C70.9597 74.8399 70.9897 75.7899 70.9797 76.7299C70.9397 78.0999 69.5397 78.4499 68.6297 78.0299ZM74.8497 70.7499C74.8497 71.5999 74.6897 72.4499 74.5097 73.2799C74.3897 73.8099 73.8997 74.0399 73.3197 74.2499C73.2497 73.8399 73.2097 73.4899 73.1397 73.1499C73.0797 72.8599 73.0397 72.5599 72.9297 72.2899C72.7297 71.7499 72.3197 71.4399 71.7397 71.4399C70.3897 71.4299 69.0297 71.4199 67.6797 71.4499C66.8597 71.4699 66.2497 71.8399 66.0097 72.6799C65.9197 72.9999 65.7997 73.3299 65.7797 73.6599C65.7497 74.0999 65.6197 74.2399 65.1497 74.2399C60.1397 74.2199 55.1297 74.2199 50.1197 74.2199C49.3497 74.2199 49.4597 74.3199 49.3297 73.5299C49.2997 73.3499 49.2797 73.1599 49.2297 72.9899C48.9197 71.9699 48.3397 71.5499 47.1797 71.4699C45.9197 71.3899 44.6397 71.4999 43.3797 71.5099C42.6797 71.5199 42.2797 71.9099 42.0797 72.5199C41.8797 73.1299 41.7297 73.7699 41.5597 74.3899C41.5397 74.4699 41.4997 74.5399 41.4697 74.6199C40.5497 74.3699 39.9097 73.5499 39.8597 72.4699C39.8097 71.2899 39.7797 70.0999 39.7697 68.9199C39.7497 65.8699 39.7197 62.8299 39.7297 59.7799C39.7497 52.8299 39.7897 45.8699 39.8397 38.9199C39.8497 38.2099 39.9397 37.4799 40.1297 36.7999C40.3697 35.9499 41.0797 35.5299 41.9097 35.3799C42.5397 35.2599 43.1897 35.1499 43.8397 35.1499C53.1097 35.1499 62.3797 35.1699 71.6497 35.1899C73.5597 35.1899 74.7997 36.4299 74.8497 38.3699C74.8597 38.9799 74.8497 39.5799 74.8497 40.1899C74.8697 50.3699 74.8697 60.5599 74.8497 70.7499Z" fill="white"/>
<path d="M7.37006 35.2999C9.81006 35.2999 12.2501 35.2999 14.6901 35.2999C14.6901 35.2999 14.6901 35.2999 14.6901 35.2899C17.1601 35.2899 19.6301 35.2899 22.0901 35.2899C22.2801 35.2899 22.4901 35.2699 22.6601 35.1899C23.0601 34.9999 23.23 34.5299 23.11 34.0299C22.96 33.4099 22.6301 33.1499 22.0001 33.1599C17.5201 33.1799 13.03 33.1899 8.55005 33.2099C8.13005 33.2099 7.70006 33.2099 7.28006 33.2499C6.68006 33.3099 6.23005 33.8299 6.27005 34.3899C6.31005 34.9899 6.68006 35.2999 7.37006 35.2999Z" fill="white"/>
<path d="M22.9607 41.1101C22.6907 40.7801 22.3207 40.6901 21.9007 40.6901C19.5207 40.7001 17.1307 40.6901 14.7507 40.6901C12.4107 40.6901 10.0707 40.6901 7.73073 40.6901C7.55073 40.6901 7.36071 40.6801 7.18071 40.7201C6.79071 40.8101 6.48072 41.0001 6.40072 41.4401C6.25072 42.2301 6.77073 42.8401 7.60073 42.8401C11.8607 42.8301 16.1207 42.8201 20.3807 42.8001C21.0407 42.8001 21.7007 42.7801 22.3707 42.7401C22.7807 42.7201 23.0307 42.4401 23.1707 42.0801C23.3107 41.7301 23.2007 41.4001 22.9607 41.1101Z" fill="white"/>
<path d="M6.7903 57.45C7.0803 57.61 7.45029 57.71 7.78029 57.71C11.1503 57.73 14.5203 57.72 17.8903 57.73C19.2103 57.73 20.5403 57.78 21.8603 57.74C22.1903 57.73 22.5603 57.54 22.8303 57.33C23.1303 57.11 23.2903 56.76 23.1503 56.35C23.0103 55.93 22.7403 55.67 22.2503 55.67C19.8103 55.64 17.3703 55.58 14.9403 55.54C14.9403 55.55 14.9403 55.57 14.9403 55.58C12.9203 55.58 10.9103 55.58 8.8903 55.58C8.4403 55.58 7.9903 55.57 7.5403 55.59C6.9603 55.62 6.49028 55.93 6.37028 56.34C6.26028 56.73 6.4003 57.23 6.7903 57.45Z" fill="white"/>
<path d="M7.59087 50.3303C9.93087 50.3303 12.2709 50.3303 14.6109 50.3303C14.6109 50.3203 14.6109 50.3003 14.6109 50.2903C16.8109 50.2903 19.0109 50.2903 21.2109 50.2903C21.4609 50.2903 21.7209 50.3003 21.9709 50.2803C22.5609 50.2303 23.0009 49.9303 23.1009 49.5403C23.2009 49.1603 22.9509 48.5903 22.5209 48.3603C22.3109 48.2503 22.0409 48.1803 21.8009 48.1803C20.7909 48.1703 19.7709 48.2003 18.7609 48.2003C15.2909 48.2003 11.8209 48.2003 8.35088 48.2003C8.04088 48.2003 7.73089 48.1803 7.42089 48.2303C6.73089 48.3403 6.35087 48.7903 6.40087 49.4003C6.44087 49.9803 6.89087 50.3303 7.59087 50.3303Z" fill="white"/>
<path d="M43.8603 42.0102C43.3203 42.2702 43.2603 42.7402 43.2603 43.2502C43.2603 48.7902 43.2603 54.3302 43.2603 59.8702C43.2603 60.7602 43.1803 61.6402 43.1903 62.5302C43.1903 62.8702 43.2603 63.2402 43.4203 63.5402C43.7003 64.0502 44.2203 64.0002 44.7003 63.9102C45.1403 63.8302 45.3703 63.5302 45.4103 63.0902C45.4303 62.8502 45.4603 62.6102 45.4603 62.3802C45.4603 59.1902 45.4603 56.0102 45.4603 52.8202C45.4603 50.1002 45.4603 47.3802 45.4603 44.6602C45.4603 44.0802 45.4803 43.5002 45.4603 42.9302C45.4203 42.0402 44.6603 41.6202 43.8603 42.0102Z" fill="white"/>
<path d="M71.2095 42.8902C71.1295 42.3402 70.6895 41.9502 70.2795 41.9502C69.7695 41.9602 69.3295 42.3602 69.2495 42.9502C69.1995 43.3102 69.2095 43.6802 69.2095 44.0502C69.2095 50.1702 69.1995 56.2902 69.2095 62.4102C69.2095 62.7102 69.2695 63.0302 69.3595 63.3202C69.4895 63.7602 69.9295 64.0102 70.3895 63.9602C70.8695 63.9102 71.2395 63.5702 71.2895 63.1002C71.3095 62.8902 71.3195 62.6802 71.3195 62.4702C71.3195 59.3702 71.3195 56.2602 71.3195 53.1602C71.3295 53.1602 71.3395 53.1602 71.3495 53.1602C71.3495 50.3402 71.3595 47.5202 71.3395 44.7002C71.3295 44.1002 71.2895 43.4902 71.2095 42.8902Z" fill="white"/>
<path d="M58.8509 43.42C58.8509 43.09 58.7509 42.71 58.5709 42.43C58.1509 41.76 57.4609 41.72 57.0209 42.37C56.8009 42.69 56.7009 43.16 56.7009 43.56C56.6709 46.69 56.6909 49.82 56.6909 52.96C56.6809 52.96 56.6709 52.96 56.6509 52.96C56.6509 55.15 56.6409 57.33 56.6509 59.52C56.6609 60.72 56.6809 61.92 56.7309 63.11C56.7509 63.6 57.0209 63.86 57.4409 63.91C58.2609 64.01 58.9109 63.46 58.9109 62.63C58.9109 62.17 58.8509 61.7 58.8509 61.24C58.8609 55.3 58.8609 49.36 58.8509 43.42Z" fill="white"/>
<path d="M65.8103 45.54C65.8103 44.69 65.8103 43.85 65.7903 43C65.7803 42.44 65.4903 42.11 64.9603 41.96C64.6303 41.87 64.1403 42.06 63.9203 42.45C63.7703 42.72 63.6803 43.06 63.6803 43.36C63.6703 48.74 63.6703 54.11 63.6603 59.49C63.6603 60.55 63.6003 61.6 63.5803 62.66C63.5703 63.36 63.9503 63.84 64.5403 63.89C65.1103 63.94 65.7103 63.43 65.7903 62.8C65.8203 62.55 65.8303 62.29 65.8303 62.04C65.8303 58.96 65.8303 55.89 65.8303 52.81C65.8203 52.81 65.8103 52.81 65.8103 52.81C65.8103 50.4 65.8103 47.97 65.8103 45.54Z" fill="white"/>
<path d="M51.8802 42.7301C51.6602 42.0101 50.8902 41.7601 50.3102 42.1901C49.9402 42.4601 49.8702 42.8401 49.8702 43.2701C49.8702 49.6501 49.8702 56.0301 49.8702 62.4101C49.8702 62.5901 49.8502 62.7801 49.8702 62.9601C49.9202 63.4601 50.3802 63.8901 50.8902 63.9201C51.4402 63.9501 51.8202 63.6501 51.9202 63.0801C51.9602 62.8301 51.9802 62.5801 51.9802 62.3201C51.9802 59.2001 51.9802 56.0801 51.9802 52.9601C51.9802 49.8101 51.9802 46.6701 51.9802 43.5201C51.9802 43.2601 51.9602 42.9801 51.8802 42.7301Z" fill="white"/>
</svg>
