<svg width="80" height="81" viewBox="0 0 80 81" fill="none" xmlns="http://www.w3.org/2000/svg">
<path d="M30.3894 71.5401C30.1694 71.5201 29.9394 71.5201 29.7094 71.5201C25.4794 71.5201 21.2394 71.5101 17.0094 71.5401C16.2994 71.5501 15.8394 71.4801 15.4894 70.7001C14.9394 69.4601 13.8694 68.7001 12.6294 68.1501C10.1394 67.0701 7.17938 67.6801 5.40938 69.7201C5.08938 70.0901 4.82937 70.5201 4.50937 70.8901C4.40937 71.0001 4.12938 71.1201 4.04938 71.0701C3.49938 70.7201 3.08937 70.2201 2.92937 69.5901C2.80937 69.1201 2.80938 68.6101 2.80938 68.1201C2.79938 62.6401 2.80938 57.1701 2.80938 51.6901C2.79938 51.6901 2.79937 51.6901 2.78937 51.6901C2.78937 46.2601 2.77937 40.8201 2.78937 35.3901C2.78937 33.0901 3.41938 30.9701 4.80938 29.1101C6.40938 26.9701 8.54939 25.8701 11.2094 25.8101C13.2794 25.7601 15.3594 25.7901 17.4294 25.7901C25.1294 25.7901 32.8394 25.7701 40.5394 25.8101C41.6094 25.8201 42.6894 26.0401 43.7394 26.2901C44.3994 26.4401 44.9994 26.8301 45.6294 27.1101C46.1494 27.3401 46.7694 27.1301 47.1094 26.6301C47.3794 26.2201 47.2994 25.9001 46.7994 25.4301C46.7094 25.3401 46.6094 25.2601 46.4994 25.1901C45.2694 24.3701 43.8694 24.0101 42.4494 23.8501C40.8394 23.6801 39.2194 23.7001 37.5994 23.6601C37.2194 23.6501 37.0494 23.6001 37.0494 23.1601C37.0694 18.0001 37.0894 12.8301 37.0794 7.67008C37.0794 6.62008 37.0594 5.54008 36.8294 4.53008C36.4494 2.82008 35.4394 1.54008 33.7794 0.840084C32.6394 0.360084 31.4294 0.270082 30.2194 0.260082C27.6094 0.240082 24.9994 0.250082 22.3894 0.260082C21.6994 0.260082 20.9894 0.230083 20.3294 0.390083C18.3694 0.870083 17.0994 2.18009 16.2694 3.97009C15.8494 4.87009 15.8894 5.83008 15.8894 6.79008C15.8994 12.2801 15.8994 17.7701 15.9094 23.2601C15.9094 23.6301 15.7294 23.6401 15.4694 23.6401C14.0994 23.6501 12.7294 23.6401 11.3594 23.6701C9.37938 23.7201 7.52937 24.1701 5.86937 25.3301C2.62937 27.5801 0.849377 30.7001 0.809377 34.6001C0.709377 44.7201 0.759384 54.8401 0.769384 64.9501C0.769384 66.6101 0.789381 68.2801 0.969381 69.9301C1.13938 71.5101 1.92939 72.7401 3.56939 73.2401C3.66939 73.2701 3.77938 73.4301 3.79938 73.5401C3.86938 73.9601 3.90938 74.3801 3.96938 74.7901C4.24938 76.6601 5.12938 78.1901 6.73938 79.1801C8.86938 80.5001 11.0794 80.5001 13.2594 79.2301C15.1894 78.1001 16.2394 76.4101 16.3394 74.1701C16.3594 73.7501 16.5294 73.7001 16.8894 73.7001C20.8794 73.6901 24.8794 73.6701 28.8694 73.6501C29.3594 73.6501 29.8594 73.6501 30.3494 73.6301C30.9194 73.6001 31.3794 73.1101 31.3794 72.5401C31.3894 72.0401 30.9594 71.5901 30.3894 71.5401ZM31.1094 23.6801C28.0794 23.6501 25.0394 23.6501 22.0094 23.6301C21.4694 23.6301 21.4794 23.6201 21.4794 23.0701C21.4994 17.7501 21.5194 12.4301 21.5394 7.12008C21.5394 6.98008 21.5394 6.84008 21.5394 6.62008C21.7894 6.62008 21.9794 6.62008 22.1794 6.62008C25.1094 6.61008 28.0494 6.60008 30.9794 6.59008C31.5694 6.59008 31.5694 6.59008 31.5694 7.20008C31.5794 12.5201 31.5894 17.8401 31.6194 23.1501C31.6194 23.5501 31.5194 23.6801 31.1094 23.6801ZM18.0094 22.8601C18.0094 17.9601 18.0094 13.0701 18.0094 8.17008C18.0094 7.41008 18.0194 6.65008 18.0694 5.89008C18.1694 4.31008 18.9594 3.19008 20.4394 2.60008C20.8394 2.44008 21.2894 2.36008 21.7094 2.35008C24.8994 2.33008 28.0894 2.29008 31.2694 2.36008C32.9394 2.40008 34.0694 3.01008 34.6194 4.46008C34.8594 5.09008 34.9794 5.81009 34.9794 6.49009C34.9894 11.8901 34.9594 17.3001 34.9394 22.7001C34.9394 23.6701 34.9394 23.6701 33.9694 23.6501C33.7394 23.6501 33.6294 23.5601 33.6394 23.3201C33.6494 23.1401 33.6394 22.9501 33.6394 22.7701C33.6394 17.8301 33.6494 12.9001 33.6394 7.96008C33.6394 7.29008 33.5994 6.60008 33.4794 5.94008C33.2994 5.03008 32.7194 4.61008 31.6994 4.48008C31.1694 4.41008 30.6294 4.41008 30.0894 4.41008C27.3294 4.42008 24.5594 4.43009 21.7994 4.47009C21.3994 4.48009 20.9894 4.57008 20.6094 4.71008C20.0194 4.92008 19.6594 5.38008 19.5794 6.00008C19.4894 6.65008 19.4294 7.32008 19.4194 7.98008C19.4094 13.0701 19.4094 18.1701 19.4194 23.2601C19.4194 23.5701 19.3294 23.6601 19.0394 23.6401C18.7094 23.6201 18.3694 23.6401 18.0194 23.6401C18.0094 23.3401 18.0094 23.1001 18.0094 22.8601ZM13.0694 76.5701C12.1794 77.4801 11.0194 77.8801 10.1194 77.8901C8.14937 77.8701 6.73937 76.9401 6.25937 75.4201C5.47937 72.9401 7.00937 69.8601 10.1194 69.7601C11.8894 69.7001 13.5694 71.1301 14.0094 72.8701C14.3794 74.3101 14.0694 75.5501 13.0694 76.5701Z" fill="white"/>
<path d="M77.0088 39.1699C77.0088 38.3599 76.9388 37.5299 76.7288 36.7599C76.2588 35.0599 75.1587 33.8699 73.4688 33.3399C72.7088 33.0999 71.8687 33.0299 71.0587 33.0199C68.8587 32.9999 66.6587 33.0399 64.4587 33.0799C64.0887 33.0899 64.0087 32.9699 64.0187 32.6199C64.0587 31.4099 64.0688 30.1899 64.0688 28.9799C64.0688 28.7299 64.1587 28.6199 64.3687 28.5499C64.8587 28.5999 65.3587 28.6399 65.8687 28.6399C73.3787 28.6399 79.4887 22.5299 79.4887 15.0199C79.4887 7.5099 73.3787 1.3999 65.8687 1.3999C58.3587 1.3999 52.2487 7.5099 52.2487 15.0199C52.2487 17.6099 52.9888 20.0199 54.2388 22.0799C53.7388 22.0699 53.2287 22.0699 52.7287 22.0699C50.8687 22.0499 49.2888 23.2799 48.9388 25.1299C48.6888 26.4399 49.2687 27.7899 50.3887 28.4199C50.5087 28.4899 50.6087 28.6999 50.6187 28.8499C50.6787 30.0999 50.6987 31.3599 50.7587 32.6099C50.7787 32.9999 50.6387 33.0799 50.2787 33.0799C48.5587 33.0599 46.8387 33.0699 45.1187 33.0699C43.8187 33.0699 42.5187 33.0999 41.2587 33.4599C39.8487 33.8499 38.7587 34.6399 38.1987 36.0599C37.8187 37.0199 37.7487 38.0099 37.7487 39.0099C37.7287 49.7499 37.7387 60.4899 37.7188 71.2199C37.7188 72.6999 38.0788 73.9999 39.0188 75.1399C39.6388 75.8799 40.3387 76.5499 41.3387 76.7199C41.6787 76.7799 41.8088 76.9199 41.8788 77.2399C42.0988 78.2199 42.5787 79.0699 43.3987 79.6599C44.8587 80.7099 46.3987 80.7699 47.9487 79.8599C48.8887 79.3099 49.4788 78.5099 49.5188 77.3699C49.5488 76.3899 49.3788 76.4399 50.4888 76.4399C55.4688 76.4099 60.4487 76.4199 65.4287 76.3999C65.7387 76.3999 65.8187 76.5199 65.8287 76.7999C65.8287 77.1199 65.8188 77.4499 65.8888 77.7699C66.1688 79.0999 67.2787 80.0999 68.6187 80.3899C69.6087 80.6099 70.5288 80.4799 71.4188 80.0899C72.7388 79.5099 73.3188 78.4299 73.3488 77.0299C73.3588 76.6899 73.4787 76.5099 73.8087 76.4399C74.5087 76.2999 75.0787 75.9099 75.5787 75.4199C76.6187 74.3899 77.0388 73.1199 77.0388 71.6699C77.0288 66.1699 77.0388 60.6599 77.0388 55.1599H77.0487C77.0187 49.8099 77.0288 44.4899 77.0088 39.1699ZM61.9688 29.0199C61.9387 30.1999 61.9288 31.3899 61.9388 32.5699C61.9388 32.9299 61.8487 33.0599 61.4688 33.0599C58.7188 33.0399 55.9687 33.0299 53.2287 33.0299C52.9887 33.0299 52.9088 32.9499 52.9088 32.7099C52.9188 31.4699 52.9188 30.2299 52.9088 28.9899C52.9088 28.6899 53.0587 28.6499 53.3087 28.6499C54.7087 28.6599 56.0987 28.6499 57.4987 28.6499C57.4987 28.6499 57.4987 28.6499 57.4987 28.6399C58.8687 28.6399 60.2288 28.6499 61.5988 28.6299C61.8788 28.6499 61.9788 28.7099 61.9688 29.0199ZM58.8188 14.2099C58.8588 14.1199 58.9488 14.0699 59.0488 14.0699H63.1487V7.1899C63.1487 7.0499 63.2587 6.9399 63.3987 6.9399H68.3587C68.4987 6.9399 68.6087 7.0499 68.6087 7.1899V14.0699H72.7087C72.8087 14.0699 72.8888 14.1199 72.9388 14.2099C72.9788 14.2999 72.9688 14.3999 72.9088 14.4699L66.0887 22.9899C66.0387 23.0499 65.9688 23.0799 65.8888 23.0799C65.8088 23.0799 65.7388 23.0499 65.6888 22.9899L58.8687 14.4699C58.7887 14.3999 58.7788 14.2999 58.8188 14.2099ZM52.6487 24.2199C53.7187 24.2199 54.7887 24.2199 55.8587 24.2199C56.6887 25.1299 57.6388 25.9199 58.6888 26.5699C58.2588 26.5699 57.8388 26.5699 57.4088 26.5699C55.4588 26.5699 53.5188 26.5599 51.5688 26.5799C51.1888 26.5799 51.0687 26.4199 51.0287 26.1099C50.8587 24.9599 51.4887 24.2199 52.6487 24.2199ZM47.2287 75.3399H47.2188C47.2188 75.7799 47.2288 76.2099 47.2188 76.6499C47.1888 77.8099 46.3387 78.4099 45.2287 78.0499C44.9887 77.9699 44.7287 77.8999 44.5387 77.7499C44.3687 77.6199 44.1787 77.3899 44.1687 77.1999C44.1387 76.0899 44.1387 74.9799 44.1687 73.8599C44.1687 73.7599 44.3588 73.5699 44.4588 73.5699C45.2288 73.5399 46.0087 73.5499 46.7787 73.5399C47.0887 73.5399 47.2488 73.6599 47.2388 73.9899C47.2188 74.4399 47.2287 74.8899 47.2287 75.3399ZM68.6688 78.0299C68.2888 77.8499 68.0687 77.5599 68.1087 77.0899C68.1487 76.5899 68.1187 76.0799 68.1187 75.5699C68.1187 74.9899 68.1287 74.4099 68.1187 73.8399C68.1187 73.6199 68.1988 73.5299 68.4088 73.5399C69.1688 73.5499 69.9288 73.5599 70.6888 73.5699C70.9188 73.5699 71.0088 73.6699 71.0088 73.8999C70.9988 74.8399 71.0287 75.7899 71.0187 76.7299C70.9787 78.0999 69.5788 78.4499 68.6688 78.0299ZM74.8888 70.7499C74.8888 71.5999 74.7287 72.4499 74.5487 73.2799C74.4287 73.8099 73.9387 74.0399 73.3587 74.2499C73.2887 73.8399 73.2487 73.4899 73.1787 73.1499C73.1187 72.8599 73.0788 72.5599 72.9688 72.2899C72.7687 71.7499 72.3587 71.4399 71.7787 71.4399C70.4287 71.4299 69.0688 71.4199 67.7188 71.4499C66.8988 71.4699 66.2887 71.8399 66.0487 72.6799C65.9587 72.9999 65.8388 73.3299 65.8188 73.6599C65.7888 74.0999 65.6588 74.2399 65.1888 74.2399C60.1788 74.2199 55.1688 74.2199 50.1588 74.2199C49.3888 74.2199 49.4987 74.3199 49.3687 73.5299C49.3387 73.3499 49.3188 73.1599 49.2688 72.9899C48.9588 71.9699 48.3787 71.5499 47.2188 71.4699C45.9587 71.3899 44.6787 71.4999 43.4187 71.5099C42.7187 71.5199 42.3187 71.9099 42.1187 72.5199C41.9187 73.1299 41.7688 73.7699 41.5988 74.3899C41.5788 74.4699 41.5387 74.5399 41.5087 74.6199C40.5887 74.3699 39.9487 73.5499 39.8987 72.4699C39.8487 71.2899 39.8187 70.0999 39.8087 68.9199C39.7887 65.8699 39.7588 62.8299 39.7688 59.7799C39.7888 52.8299 39.8288 45.8699 39.8788 38.9199C39.8888 38.2099 39.9787 37.4799 40.1687 36.7999C40.4087 35.9499 41.1187 35.5299 41.9487 35.3799C42.5787 35.2599 43.2288 35.1499 43.8788 35.1499C53.1488 35.1499 62.4188 35.1699 71.6888 35.1899C73.5988 35.1899 74.8388 36.4299 74.8888 38.3699C74.8988 38.9799 74.8888 39.5799 74.8888 40.1899C74.9088 50.3699 74.9088 60.5599 74.8888 70.7499Z" fill="white"/>
<path d="M7.40912 35.2999C9.84912 35.2999 12.2891 35.2999 14.7291 35.2999C14.7291 35.2999 14.7291 35.2999 14.7291 35.2899C17.1991 35.2899 19.6691 35.2899 22.1291 35.2899C22.3191 35.2899 22.5291 35.2699 22.6991 35.1899C23.0991 34.9999 23.2691 34.5299 23.1491 34.0299C22.9991 33.4099 22.6691 33.1499 22.0391 33.1599C17.5591 33.1799 13.0691 33.1899 8.58911 33.2099C8.16911 33.2099 7.73912 33.2099 7.31912 33.2499C6.71912 33.3099 6.26911 33.8299 6.30911 34.3899C6.34911 34.9899 6.71912 35.2999 7.40912 35.2999Z" fill="white"/>
<path d="M22.9998 41.1101C22.7298 40.7801 22.3598 40.6901 21.9398 40.6901C19.5598 40.7001 17.1698 40.6901 14.7898 40.6901C12.4498 40.6901 10.1098 40.6901 7.76978 40.6901C7.58978 40.6901 7.39978 40.6801 7.21978 40.7201C6.82978 40.8101 6.51978 41.0001 6.43978 41.4401C6.28978 42.2301 6.80978 42.8401 7.63978 42.8401C11.8998 42.8301 16.1598 42.8201 20.4198 42.8001C21.0798 42.8001 21.7398 42.7801 22.4098 42.7401C22.8198 42.7201 23.0698 42.4401 23.2098 42.0801C23.3598 41.7301 23.2398 41.4001 22.9998 41.1101Z" fill="white"/>
<path d="M6.82935 57.45C7.11935 57.61 7.48935 57.71 7.81935 57.71C11.1894 57.73 14.5593 57.72 17.9293 57.73C19.2493 57.73 20.5793 57.78 21.8993 57.74C22.2293 57.73 22.5893 57.54 22.8693 57.33C23.1693 57.11 23.3293 56.76 23.1893 56.35C23.0493 55.93 22.7793 55.67 22.2893 55.67C19.8493 55.64 17.4093 55.58 14.9793 55.54C14.9793 55.55 14.9793 55.57 14.9793 55.58C12.9593 55.58 10.9493 55.58 8.92934 55.58C8.47934 55.58 8.02935 55.57 7.57935 55.59C6.99935 55.62 6.52935 55.93 6.40935 56.34C6.29935 56.73 6.43935 57.23 6.82935 57.45Z" fill="white"/>
<path d="M7.62993 50.3303C9.96993 50.3303 12.3099 50.3303 14.6499 50.3303C14.6499 50.3203 14.6499 50.3003 14.6499 50.2903C16.8499 50.2903 19.0499 50.2903 21.2499 50.2903C21.4999 50.2903 21.7599 50.3003 22.0099 50.2803C22.5999 50.2303 23.0399 49.9303 23.1399 49.5403C23.2399 49.1603 22.9899 48.5903 22.5599 48.3603C22.3499 48.2503 22.0799 48.1803 21.8399 48.1803C20.8299 48.1703 19.8099 48.2003 18.7999 48.2003C15.3299 48.2003 11.8599 48.2003 8.38993 48.2003C8.07993 48.2003 7.76994 48.1803 7.45994 48.2303C6.76994 48.3403 6.38993 48.7903 6.43993 49.4003C6.47993 49.9803 6.92993 50.3303 7.62993 50.3303Z" fill="white"/>
<path d="M43.8994 42.0102C43.3594 42.2702 43.2994 42.7402 43.2994 43.2502C43.2994 48.7902 43.2994 54.3302 43.2994 59.8702C43.2994 60.7602 43.2194 61.6402 43.2294 62.5302C43.2294 62.8702 43.2994 63.2402 43.4494 63.5402C43.7294 64.0502 44.2494 64.0002 44.7294 63.9102C45.1694 63.8302 45.3994 63.5302 45.4394 63.0902C45.4594 62.8502 45.4894 62.6102 45.4894 62.3802C45.4894 59.1902 45.4894 56.0102 45.4894 52.8202C45.4894 50.1002 45.4894 47.3802 45.4894 44.6602C45.4894 44.0802 45.5094 43.5002 45.4894 42.9302C45.4694 42.0402 44.6994 41.6202 43.8994 42.0102Z" fill="white"/>
<path d="M71.2486 42.8902C71.1686 42.3402 70.7286 41.9502 70.3186 41.9502C69.8086 41.9602 69.3686 42.3602 69.2886 42.9502C69.2386 43.3102 69.2486 43.6802 69.2486 44.0502C69.2486 50.1702 69.2386 56.2902 69.2486 62.4102C69.2486 62.7102 69.3086 63.0302 69.3986 63.3202C69.5286 63.7602 69.9686 64.0102 70.4286 63.9602C70.9086 63.9102 71.2786 63.5702 71.3286 63.1002C71.3486 62.8902 71.3586 62.6802 71.3586 62.4702C71.3586 59.3702 71.3586 56.2602 71.3586 53.1602C71.3686 53.1602 71.3786 53.1602 71.3886 53.1602C71.3886 50.3402 71.3986 47.5202 71.3786 44.7002C71.3686 44.1002 71.3286 43.4902 71.2486 42.8902Z" fill="white"/>
<path d="M58.89 43.42C58.89 43.09 58.79 42.71 58.61 42.43C58.19 41.76 57.5 41.72 57.06 42.37C56.84 42.69 56.74 43.16 56.74 43.56C56.71 46.69 56.73 49.82 56.73 52.96C56.72 52.96 56.71 52.96 56.69 52.96C56.69 55.15 56.68 57.33 56.69 59.52C56.7 60.72 56.72 61.92 56.77 63.11C56.79 63.6 57.06 63.86 57.48 63.91C58.3 64.01 58.95 63.46 58.95 62.63C58.95 62.17 58.89 61.7 58.89 61.24C58.9 55.3 58.9 49.36 58.89 43.42Z" fill="white"/>
<path d="M65.8493 45.54C65.8493 44.69 65.8493 43.85 65.8293 43C65.8193 42.44 65.5293 42.11 64.9993 41.96C64.6693 41.87 64.1793 42.06 63.9593 42.45C63.8093 42.72 63.7193 43.06 63.7193 43.36C63.7093 48.74 63.7094 54.11 63.6994 59.49C63.6994 60.55 63.6393 61.6 63.6193 62.66C63.6093 63.36 63.9893 63.84 64.5793 63.89C65.1493 63.94 65.7493 63.43 65.8293 62.8C65.8593 62.55 65.8693 62.29 65.8693 62.04C65.8693 58.96 65.8693 55.89 65.8693 52.81C65.8593 52.81 65.8493 52.81 65.8493 52.81C65.8493 50.4 65.8493 47.97 65.8493 45.54Z" fill="white"/>
<path d="M51.9193 42.7301C51.6993 42.0101 50.9293 41.7601 50.3493 42.1901C49.9793 42.4601 49.9093 42.8401 49.9093 43.2701C49.9093 49.6501 49.9093 56.0301 49.9093 62.4101C49.9093 62.5901 49.8893 62.7801 49.9093 62.9601C49.9593 63.4601 50.4193 63.8901 50.9293 63.9201C51.4793 63.9501 51.8593 63.6501 51.9593 63.0801C51.9993 62.8301 52.0193 62.5801 52.0193 62.3201C52.0193 59.2001 52.0193 56.0801 52.0193 52.9601C52.0193 49.8101 52.0193 46.6701 52.0193 43.5201C52.0193 43.2601 51.9993 42.9801 51.9193 42.7301Z" fill="white"/>
</svg>
