<svg width="70" height="69" viewBox="0 0 70 69" fill="none" xmlns="http://www.w3.org/2000/svg">
<path d="M34.9491 68.4702C25.5791 68.4702 16.1991 68.4702 6.82908 68.4702C5.99908 68.4702 5.15907 68.5202 4.34907 68.2502C2.75907 67.7302 1.60908 66.7102 0.879075 65.2002C0.499075 64.4202 0.429074 63.6102 0.479074 62.7702C0.489074 62.6802 0.529074 62.6002 0.569074 62.5202C1.70907 60.3002 2.83907 58.0702 3.97907 55.8502C5.08907 53.6902 6.21908 51.5402 7.32908 49.3802C7.43908 49.1602 7.50907 48.8802 7.50907 48.6302C7.51907 37.5602 7.52907 26.5002 7.51907 15.4302C7.51907 14.2202 7.88907 13.1802 8.79907 12.3802C9.51907 11.7402 10.3591 11.4202 11.3291 11.4302C12.6891 11.4402 14.0491 11.4302 15.4091 11.4302C15.8391 11.4302 15.8391 11.4302 15.8391 10.9902C15.8391 9.93024 15.8391 8.86024 15.8391 7.80024C15.8391 7.23024 16.0091 7.00024 16.5491 6.81024C19.5591 5.77024 22.5691 4.74024 25.5791 3.70024C28.4991 2.70024 31.4391 1.72024 34.3491 0.690239C34.8991 0.490239 35.3391 0.590241 35.8291 0.770241C36.6791 1.08024 37.5291 1.36024 38.3791 1.65024C40.0891 2.24024 41.8091 2.83024 43.5191 3.42024C45.8191 4.21024 48.1091 5.01024 50.4091 5.80024C51.3991 6.14024 52.3891 6.48024 53.3891 6.83024C53.9391 7.02024 54.0791 7.22024 54.0791 7.83024C54.0791 8.86024 54.0791 9.89024 54.0791 10.9202C54.0791 11.4602 54.0791 11.4502 54.5991 11.4602C55.8791 11.4602 57.1591 11.5002 58.4391 11.4502C60.7491 11.3602 62.4191 13.2602 62.4091 15.4202C62.3691 23.8302 62.3991 32.2502 62.3991 40.6602C62.3991 43.3502 62.3991 46.0302 62.4091 48.7202C62.4091 48.9302 62.4591 49.1502 62.5591 49.3402C63.6191 51.4402 64.6891 53.5302 65.7691 55.6202C66.5691 57.1802 67.3791 58.7402 68.1791 60.3102C68.4791 60.8902 68.7391 61.4902 69.0891 62.0302C69.6091 62.8302 69.5391 63.6502 69.2891 64.4902C69.0191 65.4102 68.5491 66.2302 67.8391 66.9002C66.7291 67.9602 65.4191 68.4802 63.8791 68.4802C54.2291 68.4702 44.5791 68.4802 34.9391 68.4802C34.9491 68.4602 34.9491 68.4602 34.9491 68.4702ZM2.36907 62.2302C24.1391 62.2302 45.8291 62.2302 67.5591 62.2302C67.4991 62.0902 67.4691 62.0002 67.4291 61.9102C66.9791 61.0302 66.5191 60.1502 66.0691 59.2602C64.5491 56.3002 63.0191 53.3402 61.5091 50.3702C61.3491 50.0502 61.1591 49.9402 60.7991 49.9402C48.7991 49.9502 36.7991 49.9602 24.7891 49.9602C19.5291 49.9602 14.2691 49.9602 9.01907 49.9702C8.82907 49.9702 8.68908 49.9702 8.57908 50.1902C7.69908 51.9302 6.78907 53.6502 5.88907 55.3902C5.06907 56.9702 4.25907 58.5502 3.44907 60.1402C3.09907 60.8002 2.74907 61.4802 2.36907 62.2302ZM47.9691 30.5202C47.9691 30.5502 47.9791 30.5702 47.9791 30.6002C48.1391 30.6502 48.2991 30.7002 48.4491 30.7502C49.4491 31.0802 50.0491 31.9102 49.9691 32.8502C49.8791 33.9002 49.1791 34.6202 48.1091 34.7802C47.1991 34.9202 46.2791 35.0602 45.3691 35.2302C45.2491 35.2502 45.0891 35.4002 45.0691 35.5202C44.8991 36.4502 44.7591 37.3902 44.6091 38.3302C44.4491 39.3502 43.7191 40.0602 42.6991 40.1402C41.9091 40.2102 40.9091 39.7702 40.5991 38.7202C40.1291 37.1202 39.6591 35.5202 39.2091 33.9202C39.1391 33.6802 39.0791 33.6402 38.8391 33.7202C37.7591 34.1202 36.6691 34.4902 35.5891 34.8902C35.1691 35.0402 34.7891 35.0702 34.3691 34.9002C33.4791 34.5502 32.5691 34.2402 31.6691 33.9102C30.0591 33.3402 28.4491 32.7702 26.8391 32.2002C25.2291 31.6302 23.6191 31.0602 21.9991 30.4902C20.2091 29.8702 18.4191 29.2502 16.6391 28.6302C15.9491 28.3902 15.8191 28.2002 15.8191 27.4802C15.8191 24.1502 15.8191 20.8302 15.8291 17.5002C15.8291 17.1802 15.7591 17.0502 15.4091 17.0602C14.8291 17.0902 14.2391 17.0702 13.6591 17.0702C13.1691 17.0702 13.1691 17.0702 13.1691 17.5602C13.1691 26.2802 13.1791 35.0002 13.1791 43.7302C13.1791 44.2702 13.0791 44.2602 13.7191 44.2602C17.2991 44.2602 20.8791 44.2602 24.4491 44.2602C35.0691 44.2602 45.6891 44.2602 56.3091 44.2802C56.6491 44.2802 56.7591 44.2002 56.7491 43.8402C56.7291 41.9702 56.7391 40.0902 56.7391 38.2202C56.7391 31.3202 56.7491 24.4102 56.7491 17.5102C56.7491 17.0702 56.7391 17.0602 56.3091 17.0602C55.7391 17.0602 55.1691 17.0602 54.5991 17.0602C54.0591 17.0602 54.0591 17.0602 54.0591 17.6102C54.0591 20.9402 54.0591 24.2602 54.0591 27.5902C54.0591 28.1802 53.9391 28.3702 53.3891 28.5602C51.9591 29.0702 50.5291 29.5802 49.0991 30.0802C48.7491 30.2302 48.3591 30.3802 47.9691 30.5202ZM34.9691 48.5002C34.9691 48.5102 34.9691 48.5102 34.9691 48.5202C43.4891 48.5202 51.9991 48.5202 60.5191 48.5202C60.9891 48.5202 60.9891 48.5202 60.9891 48.0502C60.9991 39.9502 60.9991 31.8402 61.0091 23.7402C61.0091 20.9402 60.9891 18.1402 61.0191 15.3402C61.0291 13.9102 59.9491 12.8302 58.6291 12.8402C57.2391 12.8502 55.8391 12.8502 54.4491 12.8402C54.1791 12.8402 54.0891 12.9402 54.0891 13.2002C54.0991 13.9002 54.1091 14.5902 54.0891 15.2902C54.0791 15.6002 54.1991 15.6902 54.4891 15.6802C55.3891 15.6702 56.2991 15.6802 57.1991 15.6802C57.9691 15.6802 58.1691 15.8902 58.1791 16.6602C58.1891 26.0102 58.1891 35.3602 58.1991 44.7102C58.1991 45.4902 57.9791 45.7102 57.1991 45.7102C50.9491 45.7102 44.6991 45.7202 38.4391 45.7202C29.8591 45.7202 21.2691 45.7302 12.6891 45.7302C11.9991 45.7302 11.7491 45.4802 11.7391 44.7702C11.7391 44.4602 11.7391 44.1502 11.7391 43.8402C11.7391 34.7802 11.7491 25.7102 11.7491 16.6502C11.7491 15.8702 11.9691 15.6502 12.7491 15.6502C13.6391 15.6502 14.5291 15.6402 15.4191 15.6602C15.7291 15.6702 15.8491 15.5902 15.8391 15.2602C15.8191 14.6002 15.8191 13.9302 15.8391 13.2702C15.8491 12.9502 15.7391 12.8602 15.4291 12.8602C14.1191 12.8702 12.7991 12.8702 11.4891 12.8702C9.89908 12.8702 8.96908 13.8002 8.96908 15.3802C8.96908 26.3002 8.97908 37.2102 8.96908 48.1302C8.96908 48.4302 9.04907 48.5202 9.34907 48.5202C17.8891 48.5002 26.4291 48.5002 34.9691 48.5002ZM17.2891 8.57024C17.2791 8.77024 17.2691 8.90024 17.2691 9.04024C17.2691 12.8502 17.2691 16.6502 17.2691 20.4602C17.2691 22.6302 17.2791 24.8002 17.2691 26.9702C17.2691 27.2302 17.3391 27.3602 17.5891 27.4402C18.2891 27.6702 18.9891 27.9302 19.6791 28.1802C21.2791 28.7502 22.8791 29.3102 24.4791 29.8802C25.9991 30.4202 27.5291 30.9702 29.0491 31.5102C30.2291 31.9302 31.4191 32.3402 32.5991 32.7502C33.1291 32.9402 33.6591 33.1202 34.2491 33.3302C34.2491 33.1502 34.2491 33.0202 34.2491 32.9002C34.2491 29.6002 34.2491 26.2902 34.2491 22.9902C34.2491 20.1602 34.2491 17.3202 34.2591 14.4902C34.2591 14.2202 34.1791 14.0902 33.9091 14.0102C33.2891 13.8302 32.6691 13.6102 32.0591 13.4102C29.7091 12.6402 27.3591 11.8602 25.0091 11.0902C22.8891 10.3902 20.7591 9.70024 18.6391 9.00024C18.1991 8.85024 17.7691 8.72024 17.2891 8.57024ZM52.6691 8.56024C52.4791 8.61024 52.3491 8.64024 52.2191 8.68024C50.9991 9.08024 49.7791 9.51024 48.5491 9.89024C48.2291 9.99024 48.1491 10.1302 48.1491 10.4402C48.1591 12.3902 48.1591 14.3502 48.1591 16.3002C48.1591 17.0302 47.7291 17.3302 47.0291 17.1102C46.2691 16.8602 45.5091 16.6202 44.7391 16.4002C44.6391 16.3702 44.4691 16.4202 44.3891 16.4902C44.1291 16.7302 43.8891 17.0002 43.6491 17.2502C43.0191 17.9102 42.3891 18.5702 41.7591 19.2302C41.5291 19.4702 41.2491 19.5402 40.9491 19.4202C40.6391 19.3002 40.4991 19.0402 40.5091 18.7102C40.5091 18.6002 40.5091 18.4802 40.5091 18.3702C40.5091 16.5402 40.5091 14.7102 40.5091 12.8802C40.5091 12.6702 40.4991 12.5102 40.2091 12.6102C38.8291 13.0802 37.4491 13.5502 36.0591 14.0002C35.7691 14.0902 35.6891 14.2102 35.6891 14.5002C35.6991 20.6502 35.6991 26.8002 35.6991 32.9502C35.6991 33.0602 35.7091 33.1702 35.7191 33.3102C36.6991 32.9702 37.6291 32.6502 38.5591 32.3102C38.6291 32.2802 38.7091 32.1102 38.6891 32.0202C38.6291 31.7002 38.5091 31.3802 38.4391 31.0602C38.0691 29.4802 39.5591 28.2502 40.8391 28.5802C41.9891 28.8702 43.1391 29.1802 44.2591 29.5502C45.0391 29.8002 45.7291 29.8402 46.5291 29.5302C48.4391 28.7902 50.3991 28.1502 52.3391 27.4802C52.6091 27.3902 52.6991 27.2502 52.6991 26.9602C52.6891 20.9902 52.6991 15.0302 52.6991 9.06024C52.6891 8.91024 52.6791 8.77024 52.6691 8.56024ZM1.95907 63.7202C2.02907 63.9702 2.05907 64.1402 2.11907 64.3002C2.63907 65.8402 4.18908 67.0102 6.07908 67.0102C25.3391 67.0002 44.5991 67.0002 63.8591 67.0302C65.7591 67.0302 67.3091 65.8202 67.8091 64.3902C68.0491 63.7002 68.0791 63.7002 67.3391 63.7002C57.2491 63.7002 47.1491 63.7102 37.0591 63.7102C25.5891 63.7102 14.1291 63.7202 2.65907 63.7202C2.44907 63.7202 2.23907 63.7202 1.95907 63.7202ZM39.1091 11.4802C38.8891 11.3702 38.7591 11.3002 38.6291 11.2502C36.5691 10.3902 34.4991 9.54024 32.4391 8.68024C30.9691 8.07024 29.4891 7.45024 28.0191 6.84024C27.0391 6.43024 26.0591 6.02024 25.0791 5.63024C24.9191 5.57024 24.6991 5.52024 24.5391 5.58024C23.0491 6.07024 21.5591 6.59024 20.0791 7.10024C19.6991 7.23024 19.3191 7.38024 18.8591 7.54024C18.9991 7.60024 19.0591 7.63024 19.1191 7.65024C19.8891 7.90024 20.6591 8.14024 21.4291 8.40024C23.0591 8.94024 24.6991 9.49024 26.3291 10.0302C29.0591 10.9302 31.7891 11.8302 34.5191 12.7102C34.7391 12.7802 35.0191 12.8202 35.2391 12.7602C36.3591 12.4202 37.4791 12.0402 38.5891 11.6802C38.7291 11.6302 38.8691 11.5702 39.1091 11.4802ZM26.9591 4.74024C26.9591 4.78024 26.9491 4.82024 26.9491 4.85024C27.2991 5.00024 27.6491 5.15024 27.9991 5.29024C29.9891 6.12024 31.9691 6.95024 33.9591 7.77024C36.2891 8.74024 38.6091 9.71024 40.9391 10.6602C41.1191 10.7302 41.3691 10.7502 41.5591 10.7002C42.5491 10.4002 43.5391 10.0702 44.5191 9.74024C44.7691 9.66024 45.0191 9.56024 45.3491 9.44024C45.1691 9.35024 45.0891 9.31024 45.0091 9.28024C42.9091 8.43024 40.8091 7.59024 38.6991 6.74024C36.0791 5.69024 33.4491 4.64024 30.8191 3.61024C30.6491 3.54024 30.4191 3.54024 30.2391 3.60024C29.7391 3.74024 29.2491 3.93024 28.7491 4.10024C28.1491 4.32024 27.5491 4.53024 26.9591 4.74024ZM32.7391 2.74024C32.7291 2.77024 32.7291 2.81024 32.7191 2.84024C32.8191 2.88024 32.9091 2.93024 33.0091 2.97024C34.7391 3.67024 36.4791 4.37024 38.2191 5.07024C39.9791 5.78024 41.7291 6.48024 43.4891 7.18024C44.5791 7.62024 45.6591 8.06024 46.7491 8.50024C47.1591 8.67024 47.5591 8.83024 48.0191 8.60024C48.3991 8.42024 48.8191 8.33024 49.2191 8.20024C49.8191 8.00024 50.4291 7.80024 51.1291 7.57024C50.9391 7.48024 50.8391 7.42024 50.7291 7.38024C50.1591 7.18024 49.5891 6.98024 49.0191 6.78024C46.2991 5.85024 43.5791 4.91024 40.8691 3.98024C39.0991 3.37024 37.3291 2.76024 35.5591 2.16024C35.3491 2.09024 35.0991 1.96024 34.9091 2.01024C34.1691 2.21024 33.4591 2.49024 32.7391 2.74024ZM39.7991 30.6702C39.8191 30.7302 39.8391 30.8502 39.8791 30.9702C40.2291 32.2002 40.5891 33.4202 40.9391 34.6502C41.2791 35.8402 41.6091 37.0402 41.9491 38.2402C42.0391 38.5502 42.2591 38.7302 42.5791 38.7102C42.8891 38.6902 43.1191 38.5202 43.1791 38.2002C43.3691 37.0602 43.5591 35.9302 43.7391 34.7902C43.8291 34.2202 44.0391 34.0002 44.5991 33.9102C45.7391 33.7302 46.8791 33.5502 48.0091 33.3402C48.1791 33.3102 48.3691 33.1702 48.4591 33.0202C48.6991 32.6102 48.4791 32.2202 47.9691 32.0702C46.9191 31.7702 45.8591 31.4802 44.8091 31.1802C43.4191 30.7802 42.0291 30.3802 40.6291 29.9902C40.1991 29.8702 39.7991 30.1802 39.7991 30.6702ZM46.7091 15.5302C46.7091 13.8302 46.7091 12.1802 46.7091 10.5002C45.1391 11.0202 43.5991 11.5302 42.0791 12.0502C41.9891 12.0802 41.9191 12.2802 41.9191 12.4002C41.9091 13.8202 41.9091 15.2302 41.9191 16.6502C41.9191 16.7302 41.9391 16.8202 41.9491 16.9502C42.0291 16.8902 42.0791 16.8602 42.1191 16.8202C42.6191 16.3002 43.1091 15.7802 43.6091 15.2602C44.0591 14.7902 44.2991 14.7602 44.9191 14.9802C45.4891 15.1702 46.0691 15.3302 46.7091 15.5302Z" fill="white"/>
<path d="M34.9689 59.2901C33.4489 59.2901 31.9289 59.2901 30.4089 59.2901C29.8689 59.2901 29.5589 59.0501 29.5189 58.6301C29.4789 58.1501 29.8089 57.8301 30.3689 57.8301C32.2789 57.8301 34.1889 57.8301 36.0889 57.8301C37.2589 57.8301 38.4189 57.8301 39.5889 57.8301C40.0389 57.8301 40.3389 58.0501 40.3989 58.4101C40.4689 58.8301 40.2289 59.1901 39.7989 59.2501C39.5489 59.2901 39.2989 59.2701 39.0489 59.2801C37.6889 59.2901 36.3289 59.2901 34.9689 59.2901Z" fill="white"/>
<path d="M22.3384 27.1303C22.1784 27.0803 21.9184 27.0003 21.6684 26.9003C20.8384 26.6003 19.9984 26.2903 19.1684 25.9803C18.7084 25.8103 18.5184 25.4503 18.6584 25.0503C18.7884 24.6603 19.1984 24.4803 19.6284 24.6403C20.6184 24.9903 21.5984 25.3503 22.5784 25.7103C22.9884 25.8603 23.2184 26.2003 23.1584 26.5303C23.1084 26.8703 22.7984 27.1303 22.3384 27.1303Z" fill="white"/>
</svg>
